<svg width="24" height="24" viewBox="0 0 24 24" fill="none" xmlns="http://www.w3.org/2000/svg">
<path d="M24 12C24 5.37258 18.6274 0 12 0C5.37258 0 0 5.37258 0 12C0 18.6274 5.37258 24 12 24C18.6274 24 24 18.6274 24 12Z" fill="white"/>
<g clip-path="url(#clip0_286_2513)">
<path d="M17.3876 9.14748C16.8094 8.56833 16.115 8.11832 15.3487 7.82582C15.7825 6.55547 17.3147 6.09107 17.3147 6.09107C14.9734 4.97552 12.3508 4.58447 9.78487 4.97327C8.41147 5.24507 7.17352 5.98352 6.28072 7.06172C5.31727 8.16738 4.83892 9.61593 4.94917 11.0811C5.06212 12.5432 5.75557 13.9031 6.87562 14.8521C7.23427 15.1595 8.03617 15.6351 8.04967 15.6608C7.52227 16.9964 5.84152 17.3622 5.84152 17.3622C7.44487 18.2834 9.21427 18.8783 11.0471 19.1105C11.8769 19.2153 12.718 19.2275 13.5505 19.1406C14.9941 18.9696 16.3369 18.3113 17.3543 17.2682C18.4415 16.1994 19.0585 14.7414 19.0648 13.2159C19.072 11.69 18.4672 10.2257 17.389 9.14748H17.3876ZM16.3661 16.383C15.5224 17.1822 14.4397 17.684 13.2845 17.8104C12.574 17.8856 11.8594 17.8829 11.1515 17.801C10.2821 17.6817 9.42892 17.4495 8.62027 17.1098C9.00727 16.7484 9.31372 16.3106 9.52027 15.8228C9.61882 15.5672 9.60712 15.2841 9.48967 15.0375C8.69767 13.4067 9.04462 11.4519 10.3451 10.1906C12.0466 8.54313 14.7565 8.55753 16.4413 10.2261C18.0986 11.9559 18.0653 14.6933 16.3661 16.3835V16.383Z" fill="#141414"/>
</g>
<defs>
<clipPath id="clip0_286_2513">
<rect width="14.4" height="14.4" fill="white" transform="translate(4.7998 4.80005)"/>
</clipPath>
</defs>
</svg>
