<svg width="26" height="28" viewBox="0 0 26 28" fill="none" xmlns="http://www.w3.org/2000/svg">
<path d="M8.87054 26.3808C11.1953 28.5405 14.8186 28.5393 17.1433 26.3796L20.5406 23.2216V14.7412L11.4824 23.1565V21.0692C11.4824 20.596 11.2845 20.1433 10.9351 19.8186L0.105469 9.75671V17.4948C0.105469 17.968 0.30337 18.4207 0.652752 18.7454L8.87054 26.3796V26.3808Z" fill="#0080FF"/>
<path d="M15.8054 13.7864L13.2166 11.2282C13.0978 11.1108 12.9052 11.1108 12.7864 11.2282L10.1975 13.7864C10.0787 13.9038 10.0787 14.0941 10.1975 14.2115L12.7864 16.7698C12.9052 16.8872 13.0978 16.8872 13.2166 16.7698L15.8054 14.2115C15.9242 14.0941 15.9242 13.9038 15.8054 13.7864Z" fill="#0080FF"/>
<path d="M25.349 9.25337L17.13 1.61914C14.8053 -0.540517 11.1808 -0.53931 8.85727 1.62034L5.45996 4.77834V13.26L14.5182 4.84473V6.93196C14.5182 7.40517 14.7161 7.85907 15.0655 8.1826L25.8951 18.2433V10.504C25.8951 10.0308 25.6972 9.5781 25.3478 9.25337H25.349Z" fill="#0080FF"/>
</svg>
