<svg width="21" height="21" viewBox="0 0 21 21" fill="none" xmlns="http://www.w3.org/2000/svg">
<path d="M10.1177 0.5C4.59768 0.5 0.117676 4.98 0.117676 10.5C0.117676 16.02 4.59768 20.5 10.1177 20.5C15.6377 20.5 20.1177 16.02 20.1177 10.5C20.1177 4.98 15.6377 0.5 10.1177 0.5ZM5.18768 16.78C5.61768 15.88 8.23768 15 10.1177 15C11.9977 15 14.6277 15.88 15.0477 16.78C13.6877 17.86 11.9777 18.5 10.1177 18.5C8.25768 18.5 6.54768 17.86 5.18768 16.78ZM16.4777 15.33C15.0477 13.59 11.5777 13 10.1177 13C8.65768 13 5.18768 13.59 3.75768 15.33C2.73768 13.99 2.11768 12.32 2.11768 10.5C2.11768 6.09 5.70768 2.5 10.1177 2.5C14.5277 2.5 18.1177 6.09 18.1177 10.5C18.1177 12.32 17.4977 13.99 16.4777 15.33ZM10.1177 4.5C8.17768 4.5 6.61768 6.06 6.61768 8C6.61768 9.94 8.17768 11.5 10.1177 11.5C12.0577 11.5 13.6177 9.94 13.6177 8C13.6177 6.06 12.0577 4.5 10.1177 4.5ZM10.1177 9.5C9.28768 9.5 8.61768 8.83 8.61768 8C8.61768 7.17 9.28768 6.5 10.1177 6.5C10.9477 6.5 11.6177 7.17 11.6177 8C11.6177 8.83 10.9477 9.5 10.1177 9.5Z" fill="white"/>
</svg>
