<svg width="17" height="21" viewBox="0 0 17 21" fill="none" xmlns="http://www.w3.org/2000/svg">
<path d="M6.53731 20.087C6.53731 20.087 -1.94652 18.2209 1.84524 8.95887C1.84524 8.95887 2.70611 9.98799 2.58783 10.4833C2.58783 10.4833 3.2625 8.1454 4.71919 6.74905C5.96997 5.54913 7.24046 2.17568 6.06854 0.956543C6.06854 0.956543 11.8734 2.17568 12.5196 8.27351C12.5196 8.27351 13.2622 6.33057 14.7868 6.13841C14.7868 6.13841 14.318 7.20596 14.7868 8.80728C14.7868 8.80728 19.5949 17.0381 11.3082 19.8201C11.3082 19.8201 13.7923 16.9996 8.5241 12.1594C8.5241 12.1594 7.28208 14.7514 6.5395 15.6652C6.53731 15.6673 4.46509 17.9903 6.53731 20.087Z" fill="#FF1800"/>
</svg>
