<svg width="12" height="13" viewBox="0 0 12 13" fill="none" xmlns="http://www.w3.org/2000/svg">
<g clip-path="url(#clip0_299_4420)">
<path d="M10 10.5H0V2C0 1.60218 0.158035 1.22064 0.43934 0.93934C0.720644 0.658035 1.10218 0.5 1.5 0.5L8.5 0.5C8.89782 0.5 9.27936 0.658035 9.56066 0.93934C9.84196 1.22064 10 1.60218 10 2V10.5ZM1 9.5H9V2C9 1.86739 8.94732 1.74021 8.85355 1.64645C8.75979 1.55268 8.63261 1.5 8.5 1.5H1.5C1.36739 1.5 1.24021 1.55268 1.14645 1.64645C1.05268 1.74021 1 1.86739 1 2V9.5ZM11 2.592V11.5H2V12.5H12V4C11.9987 3.69087 11.902 3.38969 11.723 3.13765C11.544 2.88562 11.2915 2.69504 11 2.592Z" fill="#0080FF"/>
</g>
<defs>
<clipPath id="clip0_299_4420">
<rect width="12" height="12" fill="white" transform="translate(0 0.5)"/>
</clipPath>
</defs>
</svg>
