<svg width="21" height="25" viewBox="0 0 21 25" fill="none" xmlns="http://www.w3.org/2000/svg">
<path d="M15.472 0.012511C15.4189 -0.0468641 13.5048 0.0359486 11.8392 1.84376C10.1736 3.65002 10.4298 5.7219 10.4673 5.77502C10.5048 5.82815 12.8423 5.91096 14.3345 3.80939C15.8267 1.70783 15.5252 0.0734486 15.472 0.012511ZM20.6502 18.3454C20.5752 18.1954 17.0173 16.4172 17.3486 12.9985C17.6798 9.57815 19.9658 8.64065 20.0017 8.53909C20.0377 8.43753 19.0689 7.30471 18.0423 6.73127C17.2886 6.32698 16.4544 6.09535 15.6002 6.05315C15.4314 6.04846 14.8455 5.90471 13.6408 6.2344C12.847 6.45158 11.058 7.15471 10.5658 7.18284C10.072 7.21096 8.60327 6.36721 7.02358 6.14377C6.01264 5.94846 4.94076 6.34846 4.17357 6.65627C3.40795 6.96252 1.95169 7.8344 0.932942 10.1516C-0.0858099 12.4672 0.447003 16.136 0.828254 17.2766C1.2095 18.4157 1.80482 20.2829 2.81732 21.6454C3.71732 23.1829 4.91107 24.2501 5.40951 24.6126C5.90795 24.9751 7.3142 25.2157 8.2892 24.7172C9.07358 24.236 10.4892 23.9594 11.0486 23.9797C11.6064 24.0001 12.7064 24.2204 13.833 24.8219C14.7252 25.1297 15.5689 25.0016 16.4142 24.6579C17.2595 24.3126 18.483 23.0032 19.9111 20.3485C20.4533 19.1141 20.7002 18.4469 20.6502 18.3454Z" fill="#0F0F0F"/>
</svg>
