<svg width="1920" height="451" viewBox="0 0 1920 451" fill="none" xmlns="http://www.w3.org/2000/svg">
<rect y="0.0189209" width="1920" height="450" fill="#0080FF"/>
<g opacity="0.35">
<path d="M225 450.017C100.736 450.017 -4.40331e-06 349.281 -9.83505e-06 225.017C-1.52668e-05 100.753 100.736 0.0173296 225 0.0173241L486.693 0.0173127L486.693 450.017L225 450.017Z" fill="url(#paint0_linear_68_1010)"/>
<path d="M391.693 450.017C267.429 450.017 166.693 349.281 166.693 225.017C166.693 100.753 267.429 0.0173296 391.693 0.0173241L653.387 0.0173127L653.387 450.017L391.693 450.017Z" fill="url(#paint1_linear_68_1010)"/>
<path d="M558.386 450.017C434.122 450.017 333.386 349.281 333.386 225.017C333.386 100.753 434.122 0.0173296 558.386 0.0173241L820.08 0.0173127L820.08 450.017L558.386 450.017Z" fill="url(#paint2_linear_68_1010)"/>
<path d="M725.079 450.017C600.816 450.017 500.08 349.281 500.08 225.017C500.08 100.753 600.816 0.0173296 725.079 0.0173241L986.773 0.0173127L986.773 450.017L725.079 450.017Z" fill="url(#paint3_linear_68_1010)"/>
</g>
<g opacity="0.35">
<path d="M1695 450.017C1819.26 450.017 1920 349.281 1920 225.017C1920 100.753 1819.26 0.0173296 1695 0.0173241L1433.31 0.0173127L1433.31 450.017L1695 450.017Z" fill="url(#paint4_linear_68_1010)"/>
<path d="M1528.31 450.017C1652.57 450.017 1753.31 349.281 1753.31 225.017C1753.31 100.753 1652.57 0.0173296 1528.31 0.0173241L1266.61 0.0173127L1266.61 450.017L1528.31 450.017Z" fill="url(#paint5_linear_68_1010)"/>
<path d="M1361.61 450.017C1485.88 450.017 1586.61 349.281 1586.61 225.017C1586.61 100.753 1485.88 0.0173296 1361.61 0.0173241L1099.92 0.0173127L1099.92 450.017L1361.61 450.017Z" fill="url(#paint6_linear_68_1010)"/>
<path d="M1194.92 450.017C1319.18 450.017 1419.92 349.281 1419.92 225.017C1419.92 100.753 1319.18 0.0173296 1194.92 0.0173241L933.227 0.0173127L933.227 450.017L1194.92 450.017Z" fill="url(#paint7_linear_68_1010)"/>
</g>
<defs>
<linearGradient id="paint0_linear_68_1010" x1="-9.83505e-06" y1="225.017" x2="171.574" y2="225.017" gradientUnits="userSpaceOnUse">
<stop stop-color="#41A0FF"/>
<stop offset="1" stop-color="#0080FF"/>
</linearGradient>
<linearGradient id="paint1_linear_68_1010" x1="166.693" y1="225.017" x2="338.268" y2="225.017" gradientUnits="userSpaceOnUse">
<stop stop-color="#41A0FF"/>
<stop offset="1" stop-color="#0080FF"/>
</linearGradient>
<linearGradient id="paint2_linear_68_1010" x1="333.386" y1="225.017" x2="504.961" y2="225.017" gradientUnits="userSpaceOnUse">
<stop stop-color="#41A0FF"/>
<stop offset="1" stop-color="#0080FF"/>
</linearGradient>
<linearGradient id="paint3_linear_68_1010" x1="500.08" y1="225.017" x2="671.654" y2="225.017" gradientUnits="userSpaceOnUse">
<stop stop-color="#41A0FF"/>
<stop offset="1" stop-color="#0080FF"/>
</linearGradient>
<linearGradient id="paint4_linear_68_1010" x1="1920" y1="225.017" x2="1748.43" y2="225.017" gradientUnits="userSpaceOnUse">
<stop stop-color="#41A0FF"/>
<stop offset="1" stop-color="#0080FF"/>
</linearGradient>
<linearGradient id="paint5_linear_68_1010" x1="1753.31" y1="225.017" x2="1581.73" y2="225.017" gradientUnits="userSpaceOnUse">
<stop stop-color="#41A0FF"/>
<stop offset="1" stop-color="#0080FF"/>
</linearGradient>
<linearGradient id="paint6_linear_68_1010" x1="1586.61" y1="225.017" x2="1415.04" y2="225.017" gradientUnits="userSpaceOnUse">
<stop stop-color="#41A0FF"/>
<stop offset="1" stop-color="#0080FF"/>
</linearGradient>
<linearGradient id="paint7_linear_68_1010" x1="1419.92" y1="225.017" x2="1248.35" y2="225.017" gradientUnits="userSpaceOnUse">
<stop stop-color="#41A0FF"/>
<stop offset="1" stop-color="#0080FF"/>
</linearGradient>
</defs>
</svg>
