<svg width="1121" height="962" viewBox="0 0 1121 962" fill="none" xmlns="http://www.w3.org/2000/svg">
<g opacity="0.5">
<path opacity="0.91" d="M598.053 -228.583C607.941 -229.745 617.876 -230.628 627.857 -231.209C637.839 -231.72 647.855 -231.906 657.929 -231.767C668.003 -231.511 678.124 -230.895 688.267 -229.919C698.435 -228.804 708.613 -227.328 718.827 -225.48C729.017 -223.493 739.219 -221.146 749.398 -218.439C759.553 -215.604 769.663 -212.432 779.69 -208.934C789.637 -205.332 799.478 -201.428 809.146 -197.245C818.685 -192.992 827.993 -188.484 837.044 -183.743C845.887 -178.979 854.392 -174.006 862.526 -168.858C870.381 -163.722 877.794 -158.435 884.731 -153.009C891.366 -147.641 897.501 -142.156 903.125 -136.579C908.458 -131.083 913.327 -125.506 917.731 -119.87C923.947 -111.527 935.102 -94.7022 940.598 -86.2431C944.642 -80.7006 948.941 -75.0883 953.612 -69.418C958.957 -63.8522 964.86 -58.2167 971.425 -52.4999C978.815 -46.8644 986.937 -41.1476 995.756 -35.3262C1005.34 -29.5745 1015.5 -23.7182 1026.12 -17.7342C1037.1 -11.8082 1048.17 -5.74276 1059.14 0.450467C1069.83 6.62046 1079.92 12.9299 1089.15 19.402C1097.44 25.8625 1104.47 32.474 1110.07 39.2482C1114.32 46.0224 1117.01 52.9709 1118.16 60.0821C1118.13 67.2049 1116.86 74.4904 1114.58 81.9385C1111.89 89.4099 1108.87 97.0439 1105.89 104.829C1103.61 112.637 1102.11 120.608 1101.71 128.719C1102.93 136.853 1105.68 145.137 1110.03 153.538C1116.12 161.974 1123.62 170.538 1132.24 179.218C1141.76 187.909 1151.59 196.728 1161.22 205.64C1170.31 214.564 1178.17 223.593 1184.36 232.714C1188.73 241.847 1190.84 251.05 1190.55 260.345C1188.19 269.641 1183.69 279.006 1177.4 288.441C1170.08 297.877 1162.01 307.37 1153.78 316.933C1146.3 326.484 1139.91 335.989 1135.06 345.424C1132.24 354.871 1131.38 364.247 1132.45 373.578C1135.52 382.897 1140.01 392.169 1145.52 401.384C1151.81 410.61 1158.07 419.777 1163.76 428.91C1168.68 438.055 1172.11 447.153 1173.72 456.216C1173.57 465.326 1171.3 474.389 1166.96 483.441C1160.89 492.539 1153.15 501.626 1144.07 510.7C1134.18 519.845 1123.73 528.99 1113.18 538.158C1103 547.383 1093.44 556.644 1084.79 565.94C1077.37 575.305 1071.21 584.717 1066.34 594.152C1062.92 603.692 1060.64 613.266 1059.35 622.876C1059.06 632.566 1059.29 642.292 1059.77 652.029C1060.49 661.836 1060.93 671.655 1060.84 681.462C1060.28 691.303 1058.8 701.11 1056.31 710.836C1052.91 720.561 1048.37 730.182 1042.7 739.664C1036.09 749.053 1028.44 758.267 1019.89 767.249C1010.65 776.08 1000.74 784.609 990.341 792.824C979.616 800.795 968.648 808.371 957.597 815.517C946.582 822.349 935.683 828.705 924.993 834.526C914.582 839.976 904.496 844.879 894.747 849.19C885.393 853.117 876.4 856.441 867.743 859.16C859.493 861.518 851.522 863.296 843.784 864.516C836.37 865.434 829.12 865.841 821.962 865.794C815.025 865.574 808.1 864.981 801.14 864.075C794.308 863.18 787.371 862.088 780.294 860.868C773.265 859.845 766.06 858.834 758.647 857.905C751.234 857.359 743.6 857.033 735.745 856.952C727.855 857.428 719.733 858.253 711.39 859.462C703.013 861.309 694.403 863.587 685.583 866.282C676.741 869.617 667.689 873.347 658.44 877.426C649.179 882.039 639.733 886.907 630.112 891.962C620.479 897.33 610.695 902.733 600.749 908.055C590.802 913.423 580.821 918.466 570.828 923.09C560.847 927.483 550.854 931.271 540.862 934.396C530.869 937.057 520.888 938.94 510.93 940.009C500.972 940.473 491.049 940.055 481.149 938.777C471.284 936.86 461.453 934.083 451.681 930.492C441.944 926.321 432.277 921.406 422.691 915.793C413.151 909.751 403.716 903.14 394.409 896.029C385.171 888.662 376.061 880.923 367.114 872.917C358.26 864.818 349.58 856.58 341.086 848.249C332.697 840.022 324.517 831.819 316.546 823.685C308.679 815.795 301.022 808.057 293.586 800.492C286.242 793.265 279.096 786.258 272.159 779.473C265.257 773.059 258.529 766.889 251.964 760.928C245.388 755.327 238.939 749.936 232.594 744.719C226.18 739.827 219.848 735.063 213.573 730.392C207.194 725.988 200.873 721.63 194.587 717.296C188.196 713.137 181.852 708.942 175.577 704.666C169.221 700.506 162.97 696.23 156.835 691.791C150.677 687.411 144.692 682.844 138.883 678.057C133.119 673.27 127.588 668.25 122.278 662.987C117.038 657.676 112.041 652.099 107.301 646.254C102.606 640.352 98.1328 634.17 93.8685 627.71C89.6041 621.191 85.5256 614.393 81.5982 607.34C77.6359 600.206 73.8131 592.816 70.1297 585.193C66.3998 577.501 62.821 569.577 59.4048 561.443C55.9887 553.24 52.7817 544.839 49.8187 536.252C46.9138 527.619 44.2994 518.811 41.9871 509.841C39.7677 500.847 37.8738 491.691 36.2819 482.407C34.7481 473.1 33.4932 463.664 32.4823 454.113C31.4365 444.55 30.565 434.883 29.8446 425.122C29.0196 415.35 28.2992 405.497 27.6834 395.551C26.9397 385.604 26.3239 375.588 25.8824 365.491C25.3943 355.405 25.1387 345.354 25.1736 335.361C25.2781 325.368 25.7197 315.434 26.5214 305.545C27.451 295.657 28.7408 285.827 30.3791 276.055C32.0988 266.283 34.1206 256.557 36.3981 246.89C38.6871 237.211 41.1621 227.59 43.7997 218.015C46.3793 208.441 49.075 198.913 51.9102 189.431C54.664 179.938 57.5573 170.503 60.6132 161.114C63.6227 151.714 66.8413 142.36 70.2691 133.076C73.7201 123.769 77.4151 114.508 81.3658 105.317C85.3629 96.1144 89.6157 86.9814 94.0892 77.9181C98.6092 68.8548 103.327 59.8613 108.23 50.9607C113.099 42.0601 118.118 33.2641 123.266 24.5727C128.344 15.9045 133.514 7.35249 138.79 -1.06008C143.995 -9.43779 149.305 -17.6761 154.732 -25.74C160.112 -33.7459 165.643 -41.5775 171.336 -49.2232C177.053 -56.7759 182.967 -64.1311 189.102 -71.2655C195.331 -78.2953 201.791 -85.0928 208.507 -91.6346C215.351 -98.0718 222.439 -104.242 229.783 -110.145C237.242 -115.931 244.934 -121.439 252.847 -126.656C260.842 -131.769 269.022 -136.602 277.365 -141.146C285.754 -145.596 294.26 -149.767 302.87 -153.671C311.456 -157.494 320.136 -161.062 328.863 -164.385C337.542 -167.661 346.257 -170.706 355.018 -173.541C363.686 -176.376 372.389 -179.014 381.116 -181.477C389.749 -183.975 398.429 -186.322 407.132 -188.53C415.754 -190.819 424.434 -192.98 433.148 -195.037C441.805 -197.21 450.531 -199.29 459.327 -201.277C468.065 -203.403 476.896 -205.437 485.82 -207.4C494.709 -209.492 503.702 -211.502 512.812 -213.419C521.898 -215.453 531.101 -217.382 540.443 -219.183C549.762 -221.077 559.221 -222.82 568.818 -224.388C578.404 -226.003 588.142 -227.409 598.041 -228.583" stroke="url(#paint0_linear_48_3417)" stroke-linecap="round" stroke-dasharray="19 2"/>
<path opacity="0.36" d="M637.366 -206.719C647.087 -207.345 656.803 -207.693 666.514 -207.749C676.233 -207.747 685.934 -207.432 695.604 -206.793C705.279 -206.048 714.922 -204.957 724.533 -203.518C734.113 -201.941 743.649 -200.017 753.107 -197.749C762.532 -195.332 771.855 -192.56 781.066 -189.468C790.199 -186.23 799.185 -182.674 807.979 -178.816C816.672 -174.847 825.14 -170.589 833.336 -166.079C841.388 -161.484 849.136 -156.663 856.544 -151.617C863.753 -146.548 870.59 -141.292 877.034 -135.872C883.257 -130.466 889.076 -124.92 894.469 -119.248C899.667 -113.635 904.476 -107.927 908.908 -102.149C913.25 -96.4227 917.297 -90.6323 921.096 -84.7865C924.958 -79.0186 928.724 -73.1981 932.475 -67.3087C936.499 -61.5196 940.682 -55.6629 945.105 -49.7339C950.045 -43.8908 955.4 -37.9651 961.238 -31.9528C967.755 -26.0052 974.86 -19.9648 982.553 -13.8199C990.924 -7.72824 999.848 -1.53416 1009.25 4.78139C1019.12 11.0308 1029.24 17.4003 1039.46 23.8687C1049.7 30.2799 1059.67 36.7913 1069.17 43.3921C1078.11 49.913 1086.18 56.4993 1093.21 63.175C1099.17 69.7421 1103.83 76.3835 1107.09 83.0821C1109.17 89.6994 1109.9 96.3883 1109.35 103.142C1107.97 109.847 1105.71 116.663 1102.84 123.582C1099.94 130.511 1097.03 137.58 1094.47 144.832C1092.83 152.15 1092.13 159.663 1092.6 167.384C1094.63 175.221 1098.05 183.268 1102.91 191.55C1109.22 199.919 1116.65 208.48 1124.88 217.218C1133.71 226.002 1142.58 234.905 1151.03 243.899C1158.77 252.864 1165.24 261.858 1170.04 270.859C1173.1 279.758 1174.05 288.625 1172.79 297.455C1169.68 306.188 1164.68 314.891 1158.07 323.58C1150.56 332.229 1142.39 340.908 1134.08 349.661C1126.46 358.454 1119.81 367.269 1114.51 376.141C1111.05 385.109 1109.34 394.146 1109.41 403.264C1111.32 412.49 1114.62 421.763 1118.94 431.073C1124.11 440.434 1129.43 449.791 1134.41 459.093C1138.88 468.389 1142.15 477.591 1143.92 486.692C1144.18 495.74 1142.56 504.666 1139.02 513.466C1133.83 522.216 1126.94 530.878 1118.63 539.456C1109.3 548.032 1099.17 556.572 1088.6 565.11C1078.04 573.707 1067.73 582.342 1057.96 591.032C1049.1 599.833 1041.2 608.726 1034.38 617.706C1028.85 626.832 1024.44 636.036 1021.07 645.312C1018.79 654.699 1017.26 664.141 1016.26 673.592C1015.82 683.111 1015.44 692.598 1014.95 702.032C1014.35 711.448 1013.22 720.752 1011.39 729.909C1008.98 738.963 1005.64 747.822 1001.35 756.45C996.253 764.903 990.173 773.077 983.169 780.928C975.433 788.562 966.892 795.823 957.689 802.684C947.977 809.282 937.801 815.446 927.304 821.148C916.604 826.535 905.782 831.438 894.93 835.839C884.158 839.896 873.52 843.436 863.065 846.44C852.862 849.122 842.923 851.272 833.271 852.903C823.939 854.24 814.891 855.092 806.128 855.46C797.679 855.626 789.465 855.375 781.459 854.741C773.691 854.027 766.068 853.02 758.541 851.773C751.185 850.583 743.848 849.267 736.504 847.868C729.263 846.708 721.938 845.579 714.526 844.549C707.137 843.916 699.609 843.472 691.915 843.275C684.214 843.59 676.331 844.231 668.242 845.21C660.13 846.781 651.799 848.711 643.271 851.014C634.699 853.873 625.909 857.069 616.938 860.568C607.917 864.529 598.709 868.701 589.329 873.014C579.921 877.605 570.351 882.198 560.623 886.7C550.903 891.249 541.156 895.482 531.42 899.32C521.697 902.949 511.994 906.033 502.316 908.501C492.684 910.576 483.095 911.92 473.585 912.524C464.118 912.583 454.734 911.844 445.443 910.308C436.22 908.193 427.103 905.282 418.113 901.598C409.201 897.383 400.412 892.454 391.778 886.882C383.239 880.874 374.85 874.304 366.628 867.255C358.494 859.909 350.544 852.201 342.787 844.178C335.119 836.044 327.636 827.712 320.359 819.252C313.16 810.843 306.149 802.41 299.347 793.99C292.592 785.759 286.03 777.608 279.634 769.596C273.258 761.853 267.046 754.282 260.962 746.905C254.86 739.841 248.862 732.981 242.969 726.314C236.987 719.979 231.087 713.835 225.223 707.856C219.249 702.185 213.312 696.655 207.404 691.232C201.364 686.081 195.343 680.989 189.366 675.958C183.272 671.118 177.237 666.281 171.284 661.426C165.253 656.706 159.342 651.923 153.565 647.055C147.795 642.257 142.206 637.342 136.835 632.288C131.509 627.272 126.425 622.084 121.586 616.701C116.827 611.334 112.348 605.751 108.103 599.961C103.918 594.139 99.9675 588.098 96.2513 581.826C92.5488 575.521 89.0353 568.97 85.7094 562.198C82.3522 555.366 79.1484 548.298 76.1201 541.019C73.0481 533.692 70.1405 526.141 67.4077 518.391C64.6666 510.582 62.1344 502.588 59.8219 494.42C57.5469 486.208 55.538 477.826 53.7939 469.296C52.1098 460.735 50.7021 452.027 49.5816 443.184C48.5083 434.333 47.6757 425.345 47.0827 416.243C46.4795 407.117 46.0687 397.885 45.8387 388.548C45.5275 379.207 45.3856 369.759 45.3767 360.225C45.2988 350.676 45.3889 341.044 45.6584 331.329C45.9047 321.612 46.3932 311.934 47.1349 302.305C47.9113 292.678 48.9873 283.104 50.3745 273.583C51.8312 264.066 53.5991 254.602 55.6658 245.202C57.7789 235.805 60.1574 226.448 62.7645 217.161C65.3839 207.864 68.1862 198.624 71.1597 189.441C74.0991 180.244 77.1873 171.091 80.4228 162.005C83.6126 152.904 86.962 143.859 90.4821 134.883C93.9912 125.894 97.7064 116.964 101.627 108.105C105.571 99.2462 109.755 90.4602 114.166 81.7575C118.636 73.0581 123.322 64.4414 128.236 55.9079C133.161 47.3983 138.277 38.9815 143.551 30.667C148.799 22.386 154.181 14.206 159.672 6.1488C165.08 -1.86678 170.584 -9.74861 176.161 -17.4865C181.642 -25.1718 187.207 -32.7009 192.843 -40.0512C198.416 -47.3353 204.096 -54.4386 209.902 -61.3249C215.681 -68.1314 221.62 -74.7072 227.732 -81.0517C233.897 -87.3 240.267 -93.2918 246.844 -99.0269C253.519 -104.652 260.434 -110.006 267.577 -115.079C274.829 -120.041 282.322 -124.722 290.03 -129.121C297.837 -133.411 305.848 -137.42 314.041 -141.14C322.31 -144.785 330.727 -148.165 339.28 -151.293C347.864 -154.349 356.561 -157.166 365.327 -159.746C374.103 -162.313 382.924 -164.657 391.804 -166.811C400.65 -168.979 409.532 -170.97 418.45 -172.785C427.303 -174.673 436.193 -176.419 445.1 -178.036C453.954 -179.75 462.836 -181.345 471.747 -182.845C480.607 -184.465 489.521 -186.001 498.464 -187.453C507.38 -189.034 516.339 -190.555 525.374 -191.979C534.37 -193.544 543.443 -195.023 552.592 -196.405C561.737 -197.915 570.955 -199.304 580.272 -200.572C589.582 -201.921 598.988 -203.124 608.499 -204.147C618.014 -205.228 627.622 -206.094 637.354 -206.72" stroke="url(#paint1_linear_48_3417)" stroke-linecap="round" stroke-dasharray="13 16"/>
<path opacity="0.88" d="M670.881 -182.656C680.336 -182.767 689.725 -182.617 699.049 -182.205C708.352 -181.725 717.586 -180.95 726.714 -179.871C735.829 -178.688 744.825 -177.192 753.713 -175.37C762.549 -173.412 771.255 -171.143 779.804 -168.53C788.291 -165.795 796.587 -162.732 804.682 -159.353C812.682 -155.857 820.458 -152.059 827.979 -147.976C835.37 -143.791 842.485 -139.347 849.291 -134.658C855.97 -129.89 862.307 -124.906 868.306 -119.727C874.161 -114.519 879.666 -109.129 884.827 -103.593C889.881 -98.0468 894.593 -92.3767 899.012 -86.601C903.375 -80.8436 907.503 -74.9851 911.421 -69.0345C915.416 -63.1334 919.295 -57.1522 923.141 -51.0815C927.227 -45.0642 931.397 -38.9668 935.733 -32.7913C940.472 -26.6501 945.504 -20.4273 950.9 -14.1032C956.838 -7.82025 963.22 -1.42637 970.067 5.08112C977.506 11.5414 985.411 18.1153 993.746 24.8103C1002.53 31.4532 1011.63 38.2036 1020.92 45.0348C1030.37 51.8146 1039.75 58.6568 1048.92 65.5551C1057.79 72.3604 1066.12 79.1836 1073.73 86.0262C1080.59 92.7224 1086.45 99.4181 1091.19 106.085C1096.13 115.831 1098.47 135.027 1096.31 144.53C1094.07 150.806 1091.3 157.16 1088.28 163.613C1085.53 170.097 1083.07 176.756 1081.17 183.622C1080.31 190.611 1080.45 197.858 1081.75 205.371C1084.49 213.066 1088.47 221.037 1093.64 229.288C1100 237.681 1107.18 246.298 1114.86 255.104C1122.88 263.949 1130.7 272.9 1137.92 281.897C1144.34 290.8 1149.44 299.663 1152.92 308.44C1154.76 317.035 1154.64 325.504 1152.55 333.833C1148.8 341.978 1143.35 350.015 1136.49 357.992C1128.88 365.879 1120.67 373.789 1112.33 381.778C1104.61 389.84 1097.74 397.991 1092.08 406.273C1088.04 414.746 1085.58 423.394 1084.7 432.217C1085.54 441.244 1087.67 450.412 1090.81 459.699C1094.87 469.094 1099.19 478.52 1103.37 487.918C1107.26 497.306 1110.24 506.585 1111.99 515.72C1112.52 524.733 1111.4 533.564 1108.56 542.19C1104.2 550.672 1098.2 558.972 1090.72 567.109C1082.14 575.163 1072.56 583.123 1062.29 591C1051.74 598.903 1041.11 606.807 1030.68 614.748C1020.79 622.799 1011.58 630.942 1003.17 639.18C995.84 647.58 989.473 656.106 984.103 664.715C979.814 673.486 976.371 682.323 973.626 691.195C971.643 700.145 970.026 709.08 968.604 717.945C967.406 726.79 966.026 735.495 964.318 744.01C962.343 752.4 959.766 760.543 956.476 768.38C952.626 776.01 947.952 783.285 942.458 790.171C936.318 796.781 929.386 802.959 921.723 808.699C913.513 814.105 904.703 819.054 895.402 823.501C885.753 827.626 875.79 831.245 865.605 834.359C855.293 837.165 844.912 839.46 834.543 841.265C824.244 842.774 814.07 843.818 804.055 844.401C794.221 844.748 784.61 844.689 775.223 844.223C766.061 843.631 757.127 842.704 748.415 841.475C739.914 840.236 731.593 838.773 723.431 837.142C715.442 835.636 707.558 834.037 699.734 832.422C692.02 831.066 684.321 829.781 676.609 828.601C668.945 827.812 661.21 827.225 653.389 826.874C645.57 827.003 637.623 827.421 629.545 828.151C621.428 829.415 613.145 830.986 604.708 832.879C596.222 835.281 587.562 837.966 578.745 840.891C569.868 844.229 560.831 847.724 551.653 851.331C542.446 855.181 533.102 859.002 523.641 862.728C514.174 866.5 504.731 869.97 495.332 873.072C485.953 876 476.633 878.432 467.402 880.301C458.226 881.814 449.149 882.683 440.2 882.866C431.329 882.589 422.604 881.57 414.024 879.819C405.551 877.554 397.235 874.558 389.107 870.86C381.073 866.669 373.246 861.813 365.598 856.334C358.067 850.459 350.741 844.036 343.613 837.132C336.587 829.949 329.76 822.379 323.135 814.482C316.596 806.443 310.248 798.181 304.095 789.755C297.988 781.334 292.044 772.827 286.289 764.296C280.521 755.881 274.912 747.507 269.423 739.206C263.896 731.123 258.462 723.145 253.126 715.33C247.692 707.749 242.32 700.34 236.986 693.099C231.526 686.135 226.094 679.327 220.667 672.683C215.091 666.303 209.523 660.052 203.964 653.93C198.27 648.051 192.59 642.255 186.948 636.533C181.199 631.021 175.519 625.529 169.927 620.071C164.294 614.772 158.793 609.442 153.459 604.084C148.134 598.845 143.028 593.538 138.131 588.15C133.319 582.831 128.741 577.411 124.436 571.859C120.22 566.353 116.256 560.69 112.555 554.882C108.923 549.082 105.534 543.1 102.389 536.948C99.2443 530.785 96.3118 524.413 93.5641 517.863C90.7973 511.277 88.195 504.487 85.7659 497.519C83.296 490.499 80.9892 483.288 78.8569 475.887C76.7043 468.46 74.7493 460.846 73.0008 453.069C71.2564 445.258 69.7516 437.299 68.488 429.182C67.2617 421.046 66.2852 412.775 65.5702 404.371C64.8912 395.961 64.4505 387.414 64.2454 378.755C64.0532 370.085 64.0606 361.311 64.2806 352.421C64.466 343.527 64.851 334.528 65.4227 325.435C65.9483 316.335 66.6837 307.144 67.6261 297.883C68.5468 288.608 69.7085 279.373 71.0996 270.177C72.5138 260.984 74.1805 251.833 76.1099 242.735C78.0841 233.655 80.2992 224.615 82.777 215.629C85.265 206.657 87.9925 197.736 90.9122 188.873C93.8318 180.009 96.9334 171.191 100.203 162.44C103.449 153.685 106.854 144.973 110.425 136.339C113.961 127.701 117.69 119.12 121.586 110.607C125.504 102.107 129.612 93.6886 133.944 85.3435C138.31 77.014 142.912 68.7708 147.723 60.6343C152.59 52.5162 157.68 44.4946 162.956 36.5884C168.264 28.698 173.745 20.9332 179.375 13.2913C184.99 5.68269 190.706 -1.79689 196.524 -9.14743C202.266 -16.4485 208.073 -23.6015 213.931 -30.5963C219.689 -37.5443 225.487 -44.324 231.345 -50.921C237.089 -57.4496 242.915 -63.7812 248.799 -69.9071C254.638 -75.9448 260.577 -81.7482 266.642 -87.3262C272.706 -92.799 278.928 -98.0192 285.317 -102.974C291.752 -107.829 298.39 -112.415 305.228 -116.709C312.16 -120.909 319.304 -124.827 326.647 -128.452C334.098 -131.994 341.749 -135.255 349.591 -138.248C357.529 -141.159 365.634 -143.805 373.886 -146.211C382.226 -148.56 390.679 -150.684 399.256 -152.572C407.869 -154.468 416.575 -156.153 425.352 -157.655C434.145 -159.19 443 -160.553 451.895 -161.772C460.787 -163.049 469.722 -164.205 478.678 -165.24C487.624 -166.383 496.593 -167.429 505.584 -168.367C514.568 -169.435 523.566 -170.43 532.601 -171.34C541.618 -172.392 550.672 -173.369 559.752 -174.262C568.825 -175.295 577.946 -176.242 587.103 -177.09C596.251 -178.068 605.455 -178.922 614.716 -179.665C623.962 -180.479 633.274 -181.157 642.634 -181.654C651.989 -182.198 661.402 -182.548 670.869 -182.657" stroke="url(#paint2_linear_48_3417)" stroke-linecap="round" stroke-dasharray="21 26"/>
<path opacity="0.93" d="M697.364 -157.406C706.445 -157.038 715.404 -156.443 724.224 -155.602C733.023 -154.706 741.677 -153.529 750.165 -152.086C758.626 -150.553 766.916 -148.721 775.001 -146.606C783.053 -144.368 790.885 -141.826 798.489 -138.995C806.034 -136.032 813.338 -132.782 820.38 -129.249C827.342 -125.599 834.018 -121.671 840.424 -117.483C846.718 -113.198 852.732 -108.667 858.436 -103.92C864.053 -99.0823 869.363 -94.04 874.379 -88.8137C879.34 -83.5384 884.024 -78.1 888.453 -72.4945C892.868 -66.8682 897.08 -61.1008 901.126 -55.1978C905.243 -49.294 909.266 -43.2652 913.247 -37.126C917.428 -30.9865 921.648 -24.7339 925.977 -18.3673C930.637 -12.0007 935.502 -5.52681 940.618 1.06267C946.169 7.65899 952.056 14.3623 958.296 21.1995C965.012 28.0153 972.095 34.9556 979.534 42.0185C987.392 49.0497 995.515 56.1871 1003.86 63.4111C1012.39 70.5856 1020.96 77.816 1029.46 85.0914C1037.84 92.2623 1045.88 99.4447 1053.44 106.612C1060.52 113.621 1066.87 120.572 1072.34 127.462C1078.86 137.429 1085.27 156.608 1085.17 165.832C1083.17 174.774 1075.69 192.597 1071.45 201.708C1069.15 207.896 1067.34 214.3 1066.21 220.956C1066.17 227.795 1067.13 234.941 1069.16 242.409C1072.46 250.103 1076.8 258.113 1082.1 266.41C1088.29 274.88 1095.04 283.567 1102.03 292.426C1109.13 301.292 1115.83 310.23 1121.82 319.147C1126.92 327.906 1130.72 336.561 1132.96 345.046C1133.69 353.261 1132.63 361.276 1129.78 369.088C1125.48 376.631 1119.69 384.025 1112.66 391.305C1104.98 398.469 1096.78 405.647 1088.45 412.908C1080.7 420.282 1073.67 427.775 1067.7 435.467C1063.16 443.417 1060.01 451.624 1058.28 460.073C1058.1 468.811 1059.14 477.777 1061.14 486.916C1064.07 496.22 1067.38 505.603 1070.69 514.997C1073.91 524.389 1076.47 533.674 1078.06 542.787C1078.69 551.763 1077.93 560.491 1075.66 568.974C1072.03 577.226 1066.87 585.229 1060.29 592.977C1052.56 600.57 1043.72 607.964 1034.02 615.217C1023.82 622.403 1013.26 629.525 1002.6 636.641C992.171 643.811 982.1 651.044 972.57 658.35C963.826 665.82 955.868 673.383 948.749 681.072C942.617 688.913 937.32 696.844 932.778 704.839C929.091 712.94 925.97 721.046 923.259 729.096C921.03 737.162 918.919 745.094 916.793 752.847C914.722 760.492 912.346 767.858 909.576 774.918C906.512 781.772 902.88 788.242 898.615 794.291C893.88 800.057 888.462 805.358 882.388 810.164C875.817 814.646 868.627 818.628 860.904 822.09C852.76 825.205 844.185 827.819 835.265 829.923C826.071 831.706 816.669 833.004 807.106 833.812C797.444 834.379 787.746 834.491 778.064 834.181C768.412 833.699 758.851 832.844 749.41 831.644C740.077 830.369 730.898 828.827 721.869 827.039C712.987 825.29 704.249 823.39 695.664 821.363C687.192 819.498 678.832 817.594 670.574 815.72C662.399 814.109 654.278 812.59 646.203 811.209C638.143 810.209 630.085 809.397 621.997 808.816C613.898 808.694 605.742 808.833 597.511 809.254C589.219 810.147 580.84 811.332 572.367 812.784C563.823 814.695 555.165 816.845 546.391 819.188C537.575 821.9 528.64 824.744 519.623 827.657C510.553 830.796 501.41 833.887 492.212 836.885C483.01 839.906 473.866 842.666 464.829 845.091C455.819 847.368 446.927 849.181 438.168 850.511C429.475 851.534 420.949 851.961 412.598 851.793C404.346 851.207 396.281 849.97 388.43 848.062C380.684 845.701 373.161 842.683 365.872 839.011C358.698 834.899 351.738 830.176 345.035 824.874C338.425 819.186 332.048 812.985 325.893 806.329C319.826 799.381 313.982 792.048 308.337 784.384C302.746 776.553 297.353 768.475 292.125 760.201C286.918 751.872 281.848 743.437 276.922 734.923C271.963 726.461 267.099 717.992 262.327 709.54C257.458 701.236 252.661 692.992 247.893 684.848C243.011 676.884 238.142 669.04 233.274 661.326C228.26 653.834 223.235 646.47 218.199 639.234C213.015 632.231 207.823 625.345 202.644 618.579C197.331 612.037 192.049 605.583 186.81 599.219C181.489 593.053 176.263 586.952 171.144 580.905C165.996 575.029 161.009 569.171 156.208 563.334C151.441 557.633 146.902 551.914 142.59 546.176C138.356 540.534 134.391 534.835 130.683 529.086C125.38 520.504 116.157 502.926 112.181 493.848C108.428 484.646 101.843 465.448 98.9645 455.445C97.0314 448.68 95.2661 441.767 93.6614 434.683C92.0265 427.569 90.5614 420.297 89.2892 412.87C87.9961 405.428 86.9186 397.836 86.0642 390.118C85.2253 382.379 84.6229 374.505 84.2644 366.521C83.9328 358.519 83.8431 350.418 84.0107 342.198C84.1783 333.977 84.5897 325.647 85.243 317.218C85.8848 308.787 86.755 300.268 87.8535 291.658C88.9426 283.036 90.256 274.347 91.7978 265.569C93.3395 256.791 95.11 248.054 97.0864 239.354C99.0763 230.644 101.293 221.987 103.725 213.379C106.166 204.786 108.813 196.228 111.676 187.722C114.525 179.224 117.565 170.784 120.785 162.388C123.98 154 127.343 145.665 130.861 137.392C134.364 129.13 138.024 120.918 141.847 112.783C145.668 104.66 149.677 96.6051 153.861 88.629C158.076 80.6818 162.5 72.8191 167.128 65.0639C171.824 57.3323 176.726 49.6967 181.853 42.1954C187.034 34.7158 192.44 27.3705 198.025 20.1399C203.649 12.9633 209.439 5.91086 215.368 -0.998655C221.278 -7.86445 227.305 -14.5914 233.411 -21.1627C239.439 -27.7005 245.522 -34.0753 251.646 -40.2891C257.653 -46.4412 263.691 -52.4345 269.742 -58.2365C275.675 -63.9768 281.633 -69.5239 287.612 -74.8549C293.508 -80.1181 299.459 -85.159 305.475 -89.9757C311.451 -94.6935 317.525 -99.1695 323.707 -103.39C329.895 -107.515 336.238 -111.377 342.722 -114.977C349.27 -118.472 355.995 -121.698 362.885 -124.66C369.875 -127.521 377.043 -130.125 384.377 -132.465C391.828 -134.736 399.437 -136.766 407.202 -138.545C415.077 -140.28 423.091 -141.802 431.233 -143.112C439.454 -144.407 447.785 -145.519 456.224 -146.445C464.717 -147.409 473.29 -148.229 481.942 -148.893C490.629 -149.622 499.367 -150.236 508.154 -150.734C516.974 -151.345 525.822 -151.856 534.703 -152.279C543.606 -152.828 552.542 -153.3 561.489 -153.699C570.458 -154.224 579.438 -154.676 588.442 -155.065C597.456 -155.571 606.491 -156.001 615.535 -156.348C624.597 -156.797 633.677 -157.149 642.757 -157.371C651.854 -157.684 660.948 -157.845 670.049 -157.851C679.158 -157.903 688.255 -157.756 697.352 -157.408" stroke="url(#paint3_linear_48_3417)" stroke-linecap="round" stroke-dasharray="13 18"/>
<path opacity="0.61" d="M717.052 -131.896C725.684 -131.117 734.12 -130.122 742.386 -128.917C750.631 -127.669 758.683 -126.169 766.521 -124.421C774.328 -122.598 781.904 -120.506 789.252 -118.159C796.549 -115.705 803.605 -112.986 810.414 -109.991C817.149 -106.883 823.63 -103.513 829.834 -99.8869C835.975 -96.1445 841.85 -92.143 847.455 -87.9079C852.995 -83.5565 858.268 -78.9828 863.285 -74.1952C868.273 -69.3312 873.029 -64.2479 877.558 -58.968C882.094 -53.6149 886.468 -48.0855 890.68 -42.3798C894.975 -36.6185 899.169 -30.69 903.329 -24.6146C907.632 -18.4926 911.969 -12.2076 916.365 -5.77651C921.016 0.691526 925.812 7.30189 930.776 14.06C936.078 20.8515 941.607 27.7929 947.402 34.8699C953.564 41.9631 960.003 49.1945 966.709 56.5614C973.741 63.911 981.006 71.3881 988.452 78.9564C996.089 86.4749 1003.79 94.0689 1011.46 101.703C1019.1 109.246 1026.54 116.789 1033.67 124.316C1040.47 131.682 1046.75 138.982 1052.38 146.188C1057.43 153.182 1061.66 160.04 1065.02 166.76C1068.47 176.405 1069.64 194.656 1067.65 203.355C1064.47 211.793 1056.53 228.757 1052.89 237.574C1050.69 246.797 1051.39 267.04 1054.81 278.184C1058.5 285.986 1063 294.09 1068.2 302.495C1074.06 311.045 1080.21 319.796 1086.37 328.67C1092.45 337.511 1098 346.346 1102.74 355.119C1106.59 363.663 1109.15 372.02 1110.24 380.143C1109.96 387.938 1108.06 395.465 1104.55 402.714C1099.81 409.678 1093.74 416.433 1086.58 423.044C1078.91 429.521 1070.77 436.017 1062.5 442.591C1054.74 449.286 1047.61 456.156 1041.38 463.242C1036.42 470.643 1032.66 478.345 1030.15 486.359C1029.06 494.723 1029.07 503.353 1030 512.227C1031.84 521.321 1034.12 530.54 1036.53 539.794C1039.01 549.088 1041.05 558.287 1042.36 567.312C1042.95 576.187 1042.39 584.799 1040.55 593.106C1037.56 601.17 1033.18 608.892 1027.46 616.303C1020.63 623.471 1012.67 630.357 1003.74 637.01C994.158 643.532 984.018 649.895 973.543 656.154C963.021 662.414 952.586 668.659 942.408 674.93C932.741 681.311 923.619 687.763 915.157 694.302C907.505 700.999 900.596 707.79 894.411 714.648C889.065 721.646 884.35 728.653 880.199 735.652C876.668 742.704 873.495 749.662 870.539 756.457C866.553 766.458 858.115 784.808 853.086 792.923C847.25 800.222 832.514 811.948 823.583 816.307C817.079 818.715 810.125 820.608 802.757 821.985C795.088 823.074 787.095 823.667 778.842 823.803C770.374 823.685 761.743 823.157 752.994 822.219C744.148 821.137 735.254 819.71 726.348 817.981C717.431 816.202 708.548 814.18 699.733 811.971C690.931 809.813 682.214 807.544 673.59 805.19C664.996 803.01 656.486 800.827 648.05 798.685C639.633 796.81 631.262 795.042 622.941 793.418C614.615 792.163 606.293 791.088 597.991 790.232C589.636 789.795 581.258 789.603 572.858 789.656C564.388 790.146 555.881 790.891 547.306 791.87C538.67 793.253 529.971 794.848 521.223 796.598C512.397 798.676 503.532 800.865 494.631 803.104C485.686 805.524 476.725 807.916 467.751 810.21C458.772 812.526 449.931 814.613 441.223 816.396C432.559 818.047 424.06 819.308 415.76 820.138C407.513 820.694 399.487 820.729 391.692 820.247C383.987 819.391 376.516 817.959 369.304 815.943C362.204 813.512 355.352 810.495 348.773 806.886C342.289 802.882 336.084 798.312 330.11 793.224C324.249 787.768 318.623 781.831 313.245 775.451C307.925 768.787 302.817 761.731 297.918 754.355C293.054 746.785 288.348 738.953 283.803 730.897C279.245 722.743 274.819 714.441 270.493 706.02C266.097 697.593 261.785 689.115 257.526 680.614C253.154 672.182 248.826 663.772 244.5 655.398C240.049 647.15 235.591 638.983 231.127 630.887C226.502 622.968 221.877 615.144 217.254 607.416C212.474 599.889 207.718 592.464 202.972 585.149C198.12 578.023 193.329 570.996 188.606 564.08C183.829 557.343 179.151 550.689 174.62 544.118C170.094 537.728 165.746 531.392 161.599 525.117C157.501 518.984 153.62 512.892 149.999 506.814C144.803 497.885 135.824 480.116 132.012 471.196C128.495 462.288 122.531 444.105 120.005 434.753C117.58 425.282 113.36 405.654 111.579 395.489C110.377 388.641 109.328 381.65 108.476 374.54C107.581 367.407 106.874 360.14 106.371 352.766C105.874 345.37 105.604 337.873 105.573 330.278C105.569 322.666 105.802 314.967 106.307 307.178C106.838 299.383 107.615 291.504 108.652 283.544C109.722 275.591 111.05 267.558 112.612 259.448C114.207 251.347 116.048 243.173 118.118 234.935C120.211 226.702 122.513 218.496 125.03 210.341C127.535 202.183 130.233 194.071 133.122 186.005C135.989 177.934 139.026 169.904 142.238 161.939C145.416 153.966 148.749 146.043 152.224 138.177C155.662 130.315 159.256 122.501 162.986 114.768C166.693 107.03 170.55 99.3637 174.569 91.7718C178.571 84.1998 182.768 76.7103 187.152 69.3375C191.571 61.9728 196.199 54.7301 201.028 47.5954C205.93 40.5022 211.04 33.5422 216.368 26.7183C221.77 19.9359 227.376 13.2981 233.173 6.81342C239.018 0.376213 245.019 -5.91595 251.171 -12.0405C257.304 -18.1338 263.551 -24.0564 269.879 -29.8162C276.148 -35.5304 282.463 -41.0901 288.806 -46.4639C295.033 -51.8057 301.276 -56.9645 307.513 -61.9456C313.618 -66.8747 319.713 -71.6149 325.807 -76.1522C331.781 -80.6347 337.776 -84.909 343.765 -88.9576C349.693 -92.9494 355.646 -96.6962 361.662 -100.212C367.638 -103.655 373.708 -106.848 379.874 -109.791C386.047 -112.66 392.351 -115.283 398.782 -117.637C405.27 -119.929 411.913 -121.969 418.699 -123.759C425.556 -125.497 432.582 -126.991 439.756 -128.258C447.021 -129.504 454.434 -130.522 461.994 -131.351C469.634 -132.172 477.412 -132.816 485.291 -133.282C493.273 -133.782 501.352 -134.139 509.518 -134.356C517.758 -134.639 526.079 -134.807 534.469 -134.863C542.916 -135.012 551.427 -135.075 559.964 -135.047C568.576 -135.134 577.205 -135.144 585.866 -135.087C594.569 -135.151 603.297 -135.126 612.026 -135.053C620.805 -135.087 629.578 -135.051 638.342 -134.921C647.143 -134.902 655.943 -134.776 664.705 -134.54C673.497 -134.38 682.27 -134.093 690.994 -133.65C699.726 -133.241 708.418 -132.663 717.041 -131.898" stroke="url(#paint4_linear_48_3417)" stroke-linecap="round" stroke-dasharray="24 4"/>
<path opacity="0.18" d="M731.538 -106.645C739.645 -105.512 747.559 -104.184 755.272 -102.673C762.969 -101.106 770.432 -99.3314 777.684 -97.3411C784.898 -95.2651 791.887 -92.966 798.633 -90.425C805.322 -87.7795 811.783 -84.8998 817.99 -81.7814C824.148 -78.5441 830.059 -75.0537 835.72 -71.3358C844.043 -65.464 859.512 -52.3644 866.721 -45.1789C871.475 -40.1936 876.07 -35.0016 880.531 -29.6075C885.05 -24.123 889.479 -18.4229 893.85 -12.5338C898.342 -6.55969 902.835 -0.390828 907.348 5.95392C912.043 12.3782 916.824 18.9985 921.713 25.785C926.85 32.6345 932.139 39.6635 937.601 46.8422C943.334 54.0905 949.254 61.4808 955.347 69.0206C961.702 76.5789 968.2 84.2656 974.826 92.0517C981.614 99.826 988.451 107.676 995.274 115.571C1002.09 123.403 1008.77 131.228 1015.21 139.056C1021.45 146.724 1027.29 154.333 1032.66 161.849C1037.6 169.16 1041.91 176.33 1045.51 183.347C1049.66 193.392 1053.02 212.233 1052.28 221.043C1050.19 229.43 1043.3 245.713 1039.31 253.863C1035.9 262.239 1032 280.314 1032.24 290.246C1033.63 297.258 1035.81 304.609 1038.77 312.316C1042.61 320.267 1047.05 328.518 1051.95 337.021C1057.28 345.64 1062.69 354.394 1067.93 363.218C1072.94 371.96 1077.32 380.632 1080.83 389.162C1083.47 397.415 1084.88 405.418 1084.91 413.126C1083.73 420.451 1081.09 427.46 1077.04 434.149C1071.93 440.528 1065.66 446.667 1058.45 452.641C1050.81 458.487 1042.76 464.315 1034.6 470.246C1026.88 476.296 1019.7 482.534 1013.27 489.027C1007.95 495.853 1003.68 503.01 1000.5 510.519C998.571 518.41 997.636 526.625 997.569 535.104C998.388 543.862 999.668 552.785 1001.18 561.779C1002.88 570.84 1004.32 579.836 1005.24 588.687C1005.67 597.387 1005.18 605.822 1003.64 613.94C1001.15 621.769 997.451 629.245 992.545 636.343C986.616 643.13 979.589 649.573 971.569 655.691C962.825 661.59 953.38 667.24 943.422 672.698C933.223 678.071 922.871 683.349 912.528 688.556C902.451 693.808 892.671 699.078 883.342 704.386C874.604 709.825 866.459 715.311 858.938 720.863C852.148 726.564 846.006 732.292 840.445 738.026C835.559 743.855 831.153 749.622 827.13 755.288C821.9 763.696 812.479 779.247 807.755 786.145C802.788 792.362 791.059 802.225 784.121 805.769C776.371 808.388 758.548 810.795 748.581 810.63C741.607 810.168 734.37 809.287 726.921 808.027C719.296 806.627 711.522 804.916 703.619 802.91C695.607 800.86 687.524 798.606 679.388 796.166C671.185 793.79 662.96 791.323 654.736 788.772C646.448 786.394 638.181 784.024 629.927 781.694C621.621 779.615 613.329 777.65 605.045 775.82C596.699 774.312 588.363 772.977 580.013 771.844C571.596 771.091 563.164 770.552 554.701 770.235C546.171 770.298 537.607 770.593 529.019 771.088C520.353 771.923 511.665 772.946 502.957 774.12C494.182 775.554 485.387 777.091 476.609 778.657C467.787 780.404 458.983 782.096 450.227 783.705C441.465 785.337 432.885 786.768 424.478 787.949C416.108 789.007 407.949 789.729 400.015 790.07C392.148 790.188 384.526 789.858 377.167 789.062C369.906 787.943 362.907 786.32 356.183 784.187C349.56 781.683 343.216 778.656 337.149 775.119C331.185 771.2 325.483 766.777 320.047 761.877C314.701 756.64 309.589 750.951 304.726 744.84C299.899 738.449 295.294 731.688 290.863 724.591C286.457 717.295 282.211 709.708 278.109 701.885C273.971 693.942 269.953 685.804 266.015 677.521C262.01 669.181 258.068 660.751 254.172 652.25C250.173 643.766 246.192 635.264 242.226 626.754C238.141 618.317 234.06 609.905 229.973 601.553C225.768 593.31 221.565 585.141 217.383 577.063C213.098 569.124 208.845 561.28 204.635 553.533C200.361 545.962 196.173 538.502 192.081 531.131C187.967 523.948 183.993 516.868 180.172 509.883C176.385 503.066 172.785 496.354 169.403 489.721C166.07 483.248 162.971 476.846 160.112 470.492C156.055 461.201 149.234 442.915 146.447 433.839C143.89 424.845 139.671 406.667 137.942 397.426C136.251 388.1 133.386 368.899 132.224 359.028C131.411 352.372 130.747 345.627 130.23 338.756C129.679 331.875 129.303 324.902 129.129 317.82C128.944 310.734 128.978 303.569 129.255 296.32C129.559 289.066 130.11 281.755 130.917 274.362C131.79 266.99 132.926 259.552 134.333 252.062C135.798 244.578 137.523 237.039 139.519 229.448C141.556 221.882 143.856 214.25 146.408 206.585C148.975 198.913 151.745 191.29 154.719 183.716C157.671 176.136 160.789 168.606 164.067 161.113C167.308 153.62 170.704 146.174 174.22 138.777C177.688 131.377 181.278 124.015 184.98 116.722C188.638 109.417 192.411 102.17 196.319 95.0009C200.179 87.8293 204.173 80.7348 208.321 73.7353C212.462 66.7581 216.77 59.8682 221.259 53.1055C225.778 46.3642 230.51 39.7602 235.433 33.287C240.427 26.8596 245.632 20.5808 251.042 14.4617C256.547 8.39521 262.243 2.49613 268.12 -3.23887C274.065 -8.91692 280.176 -14.4231 286.429 -19.7531C292.69 -25.0319 299.066 -30.1301 305.524 -35.0577C311.936 -39.951 318.4 -44.6583 324.895 -49.1863C331.296 -53.6823 337.693 -58.0091 344.081 -62.1446C350.338 -66.247 356.567 -70.1758 362.772 -73.9055C368.841 -77.591 374.88 -81.0919 380.905 -84.3902C389.771 -89.1712 407.389 -97.5906 416.239 -101.199C425.087 -104.516 443.214 -109.928 452.544 -112.031C462.069 -113.857 481.855 -116.41 492.119 -117.187C499.105 -117.644 506.21 -117.933 513.437 -118.063C520.758 -118.224 528.19 -118.231 535.729 -118.109C543.362 -118.055 551.078 -117.879 558.883 -117.591C566.765 -117.401 574.728 -117.114 582.748 -116.736C590.835 -116.46 598.983 -116.104 607.159 -115.679C615.402 -115.356 623.676 -114.974 631.959 -114.505C640.291 -114.154 648.644 -113.712 656.973 -113.193C665.354 -112.766 673.706 -112.24 682.038 -111.61C690.39 -111.047 698.706 -110.362 706.955 -109.538C715.219 -108.723 723.416 -107.769 731.527 -106.648" stroke="url(#paint5_linear_48_3417)" stroke-linecap="round" stroke-dasharray="8 12"/>
<path opacity="0.46" d="M743.19 -81.523C750.781 -80.0766 758.175 -78.4673 765.379 -76.6801C772.564 -74.8384 779.545 -72.8119 786.317 -70.5897C793.05 -68.2951 799.577 -65.7791 805.878 -63.0496C815.171 -58.6974 832.64 -48.6713 840.831 -43.0044C848.806 -36.9213 863.883 -23.393 871.077 -15.9631C875.868 -10.8176 880.564 -5.44714 885.187 0.156288C889.883 5.86128 894.558 11.7935 899.215 17.9421C903.998 24.1865 908.811 30.6524 913.687 37.3152C918.711 44.0818 923.817 51.0274 929.024 58.171C934.405 65.3789 939.891 72.7739 945.482 80.3191C951.241 87.9138 957.073 95.6467 962.986 103.496C968.994 111.356 975.01 119.293 980.999 127.307C986.971 135.264 992.825 143.241 998.495 151.211C1004.01 159.074 1009.21 166.861 1014.04 174.585C1018.56 182.118 1022.6 189.523 1026.07 196.771C1030.27 207.199 1034.62 226.72 1034.71 235.802C1033.5 244.36 1028.04 260.589 1024.31 268.476C1020.62 276.367 1014.41 292.9 1012.61 301.847C1012.32 308.132 1012.67 314.734 1013.67 321.691C1015.52 328.925 1018.02 336.495 1021.13 344.39C1024.91 352.503 1029.07 360.872 1033.49 369.446C1038.14 378.069 1042.68 386.776 1046.93 395.485C1050.83 404.044 1054.04 412.471 1056.38 420.676C1057.87 428.567 1058.21 436.147 1057.31 443.379C1055.33 450.203 1052.06 456.678 1047.55 462.805C1042.15 468.603 1035.75 474.146 1028.53 479.512C1020.97 484.739 1013.05 489.959 1005.02 495.259C997.386 500.693 990.2 506.318 983.65 512.201C978.062 518.427 973.357 525.015 969.589 531.949C966.934 539.292 965.175 546.99 964.187 554.984C964.049 563.292 964.391 571.776 965.023 580.38C965.935 589.099 966.738 597.778 967.202 606.332C967.351 614.77 966.816 622.944 965.464 630.817C963.353 638.397 960.216 645.6 956.045 652.385C950.98 658.841 944.88 664.878 937.833 670.529C930.049 675.896 921.506 680.934 912.344 685.67C902.794 690.25 892.912 694.622 882.861 698.845C872.838 703.028 862.912 707.148 853.201 711.223C843.881 715.381 834.969 719.54 826.53 723.725C818.686 728.042 811.383 732.373 804.641 736.725C795.716 743.405 781.067 756.583 774.996 762.879C769.671 768.929 759.738 779.523 754.732 783.87C743.709 790.025 723.986 794.152 716.157 793.757C707.735 792.686 689.314 788.574 679.441 785.693C672.615 783.649 665.635 781.387 658.516 778.963C651.257 776.586 643.897 774.11 636.44 771.562C628.854 769.163 621.205 766.767 613.489 764.383C605.67 762.245 597.787 760.183 589.863 758.23C581.835 756.561 573.761 755.048 565.642 753.692C557.425 752.671 549.165 751.832 540.862 751.176C532.472 750.859 524.039 750.725 515.583 750.755C507.04 751.087 498.482 751.563 489.916 752.16C481.273 753 472.646 753.896 464.04 754.837C455.386 755.909 446.784 756.938 438.259 757.896C429.714 758.872 421.359 759.67 413.22 760.251C405.117 760.733 397.233 760.925 389.602 760.801C382.024 760.461 374.72 759.752 367.678 758.631C360.726 757.234 354.044 755.405 347.657 753.114C341.349 750.505 335.335 747.435 329.589 743.907C323.941 740.043 318.562 735.721 313.442 730.963C308.392 725.883 303.578 720.395 298.997 714.509C294.458 708.342 290.122 701.829 285.957 694.983C281.821 687.924 277.83 680.572 273.964 672.981C270.085 665.225 266.315 657.273 262.635 649.144C258.899 640.932 255.226 632.583 251.6 624.14C247.909 615.672 244.248 607.154 240.615 598.596C236.907 590.073 233.214 581.543 229.56 573.04C225.823 564.63 222.121 556.257 218.473 547.942C214.761 539.764 211.125 531.651 207.574 523.644C203.992 515.786 200.521 508.031 197.182 500.387C193.857 492.909 190.69 485.539 187.689 478.291C184.752 471.204 181.996 464.232 179.456 457.378C175.849 447.369 169.826 427.987 167.403 418.563C165.232 409.33 161.843 391.068 160.549 381.973C159.308 372.872 157.328 354.448 156.529 345.052C155.704 335.56 154.473 316.111 154.125 306.164C153.896 299.492 153.831 292.744 153.951 285.928C154.072 279.112 154.401 272.237 154.959 265.31C155.564 258.388 156.421 251.423 157.548 244.433C158.732 237.452 160.197 230.45 161.95 223.406C163.764 216.397 165.858 209.367 168.236 202.306C170.669 195.265 173.371 188.199 176.316 181.111C179.294 174.035 182.466 167.006 185.822 160.045C189.146 153.072 192.638 146.149 196.256 139.284C199.824 132.388 203.504 125.559 207.293 118.769C211.001 111.963 214.815 105.207 218.718 98.5098C222.542 91.795 226.466 85.1422 230.483 78.5731C234.453 71.9989 238.552 65.5096 242.766 59.1122C246.972 52.7365 251.326 46.4647 255.84 40.3266C260.38 34.2224 265.113 28.2639 270.03 22.4471C275.01 16.6912 280.203 11.0999 285.585 5.6653C291.057 0.325381 296.718 -4.85789 302.568 -9.84778C308.49 -14.7619 314.582 -19.5016 320.811 -24.0422C327.079 -28.5191 333.467 -32.8158 339.948 -36.9295C346.404 -40.9777 352.922 -44.8549 359.475 -48.5583C365.949 -52.2163 372.432 -55.6976 378.913 -59.0061C385.272 -62.2854 391.604 -65.389 397.893 -68.3102C407.111 -72.5921 425.119 -80.1988 433.947 -83.5223C442.583 -86.6313 459.749 -91.8489 468.343 -93.9336C476.934 -95.8087 494.444 -98.5342 503.423 -99.412C512.569 -100.104 531.478 -100.643 541.257 -100.533C547.89 -100.454 554.644 -100.233 561.496 -99.8755C568.435 -99.5854 575.481 -99.1818 582.607 -98.6616C589.825 -98.2195 597.124 -97.6976 604.493 -97.0633C611.951 -96.5328 619.464 -95.9197 627.034 -95.224C634.676 -94.6253 642.353 -93.9519 650.065 -93.204C657.83 -92.5352 665.619 -91.7959 673.398 -90.9613C681.234 -90.2168 689.045 -89.3701 696.842 -88.4173C704.659 -87.5191 712.447 -86.5077 720.172 -85.3586C727.919 -84.2383 735.585 -82.9624 743.179 -81.527" stroke="url(#paint6_linear_48_3417)" stroke-linecap="round" stroke-dasharray="21 15"/>
<path opacity="0.47" d="M754.323 -55.7891C761.421 -54.0711 768.351 -52.1986 775.113 -50.1458C781.86 -48.061 788.436 -45.7851 794.839 -43.3181C804.304 -39.4127 822.306 -30.4349 830.835 -25.3153C839.186 -19.817 855.083 -7.47264 862.703 -0.619931C867.743 4.15527 872.692 9.16937 877.554 14.4118C882.463 19.7765 887.303 25.3895 892.111 31.2174C896.974 37.183 901.832 43.3622 906.692 49.7702C911.635 56.278 916.595 63.0087 921.585 69.9303C926.674 76.9456 931.794 84.1519 936.938 91.5338C942.185 98.9729 947.444 106.557 952.705 114.281C958.009 122.025 963.276 129.879 968.48 137.794C973.651 145.694 978.699 153.617 983.571 161.565C988.302 169.4 992.787 177.217 996.951 184.957C1000.87 192.553 1004.39 200.025 1007.47 207.379C1010.2 214.516 1012.41 221.478 1014.08 228.255C1015.66 237.976 1015.42 256.076 1013.69 264.501C1011.13 272.538 1004.31 288.086 1000.58 295.825C997.286 303.744 992.632 320.73 991.771 330.016C992.065 336.573 992.916 343.449 994.332 350.661C996.427 358.144 999.022 365.934 1002.04 373.998C1005.53 382.242 1009.24 390.671 1013.01 399.228C1016.85 407.791 1020.46 416.35 1023.66 424.837C1026.45 433.132 1028.54 441.219 1029.77 449.034C1030.19 456.499 1029.58 463.597 1027.84 470.317C1025.16 476.627 1021.35 482.549 1016.49 488.109C1010.87 493.339 1004.4 498.311 997.23 503.09C989.797 507.743 982.045 512.371 974.187 517.067C966.659 521.906 959.521 526.929 952.91 532.195C947.119 537.818 942.08 543.783 937.839 550.097C934.573 556.848 932.074 563.935 930.294 571.349C929.297 579.091 928.763 587.049 928.574 595.145C928.722 603.4 928.869 611.63 928.844 619.785C928.655 627.855 927.98 635.7 926.68 643.235C924.826 650.527 922.151 657.436 918.601 663.911C914.299 670.046 909.099 675.737 903.029 680.986C896.254 685.901 888.715 690.419 880.542 694.558C871.888 698.463 862.793 702.073 853.388 705.433C843.837 708.692 834.199 711.774 824.612 714.738C815.192 717.699 806.008 720.611 797.134 723.481C788.666 726.439 780.623 729.38 773.038 732.318C762.682 736.899 745.085 746.04 737.693 750.482C725.637 758.721 709.958 768.61 704.937 770.728C694.204 772.862 675.778 771.94 668.682 770.274C661.097 768.191 644.571 762.686 635.681 759.437C629.528 757.269 623.196 754.986 616.71 752.622C610.053 750.387 603.259 748.117 596.346 745.859C589.271 743.796 582.074 741.782 574.772 739.835C567.332 738.145 559.793 736.564 552.167 735.098C544.398 733.898 536.56 732.859 528.655 731.942C520.609 731.319 512.519 730.829 504.387 730.46C496.151 730.362 487.882 730.365 479.592 730.447C471.229 730.725 462.869 731.055 454.54 731.399C446.15 731.856 437.815 732.273 429.543 732.603C421.262 732.955 413.176 733.152 405.288 733.155C397.432 733.084 389.807 732.747 382.413 732.142C375.082 731.362 368.01 730.252 361.206 728.789C351.245 726.049 332.822 718.181 324.343 713.006C318.881 709.138 313.668 704.845 308.69 700.16C303.8 695.185 299.141 689.828 294.691 684.106C290.306 678.121 286.107 671.798 282.083 665.159C278.09 658.306 274.254 651.178 270.55 643.779C266.844 636.239 263.262 628.474 259.784 620.527C256.28 612.467 252.858 604.277 249.517 595.959C246.143 587.6 242.832 579.155 239.592 570.665C236.3 562.178 233.09 553.675 229.932 545.17C226.757 536.734 223.657 528.33 220.641 519.964C217.627 511.711 214.705 503.538 211.901 495.441C209.126 487.483 206.47 479.629 203.981 471.885C201.526 464.296 199.25 456.822 197.146 449.475C195.097 442.291 193.242 435.218 191.585 428.268C189.278 418.106 185.72 398.497 184.436 388.984C183.328 379.676 181.808 361.324 181.329 352.201C180.847 343.115 180.185 324.771 179.978 315.462C179.699 306.085 179.472 286.979 179.598 277.284C179.798 267.507 181.057 247.757 182.227 237.82C183.705 227.903 188.098 208.09 191.04 198.217C193.188 191.674 195.627 185.131 198.326 178.601C201.105 172.093 204.145 165.598 207.435 159.11C210.751 152.621 214.252 146.2 217.92 139.864C221.57 133.509 225.349 127.209 229.239 120.971C233.066 114.705 236.991 108.507 240.989 102.341C244.904 96.1644 248.889 90.0308 252.939 83.951C256.905 77.86 260.936 71.8228 265.045 65.8701C269.085 59.9001 273.228 54.0132 277.461 48.2414C281.678 42.4755 286.01 36.8234 290.485 31.3096C294.983 25.831 299.644 20.5 304.46 15.3379C309.351 10.2343 314.423 5.29823 319.682 0.545035C325.007 -4.12837 330.539 -8.60963 336.238 -12.8914C342.015 -17.0887 347.962 -21.0972 354.056 -24.8895C360.2 -28.622 366.47 -32.1476 372.832 -35.4804C379.218 -38.7519 385.666 -41.8445 392.155 -44.7416C398.615 -47.6007 405.095 -50.2735 411.568 -52.7846C421.131 -56.4188 439.94 -62.8487 449.125 -65.6464C458.073 -68.2809 475.543 -72.7472 484.075 -74.5743C492.454 -76.253 509.072 -78.7966 517.369 -79.6489C525.672 -80.3715 542.528 -81.049 551.136 -81.0172C559.894 -80.8944 577.912 -80.0244 587.19 -79.3198C596.683 -78.5847 616.216 -76.6851 626.256 -75.5465C633.036 -74.8423 639.904 -74.0489 646.823 -73.1698C653.821 -72.3832 660.866 -71.5002 667.951 -70.536C675.094 -69.6477 682.268 -68.6829 689.457 -67.6097C696.695 -66.617 703.933 -65.5099 711.155 -64.3083C718.418 -63.14 725.655 -61.8559 732.847 -60.4393C740.063 -59.0501 747.225 -57.5071 754.313 -55.7938" stroke="url(#paint7_linear_48_3417)" stroke-linecap="round" stroke-dasharray="18 15"/>
<path opacity="0.21" d="M766.487 -28.5004C773.125 -26.5316 779.653 -24.3972 786.044 -22.0975C795.539 -18.4927 813.8 -10.2593 822.565 -5.57867C828.331 -2.30637 833.971 1.18851 839.475 4.9007C850.427 12.6365 860.911 21.32 870.988 30.9308C881.087 41.0095 890.895 52.0476 900.503 63.9884C910.233 76.3822 919.838 89.6118 929.313 103.61C938.89 117.868 948.26 132.712 957.285 147.98C966.081 163.184 974.18 178.528 981.286 193.772C987.602 208.522 992.454 222.867 995.565 236.587C997.435 249.519 997.397 261.715 995.462 273.154C992.654 283.954 988.518 294.287 983.537 304.412C979.117 314.613 975.047 325.228 971.944 336.581C971.006 348.854 971.791 362.303 974.402 376.955C979.147 392.562 984.895 409.018 990.847 425.891C996.556 442.575 1000.44 458.696 1001.49 473.726C1000.22 483.981 991.639 501.88 984.378 509.567C978.624 514.241 972.139 518.66 965.079 522.877C957.791 526.978 950.249 531.042 942.586 535.161C935.23 539.423 928.178 543.854 921.578 548.5C915.666 553.51 910.375 558.836 905.768 564.51C901.989 570.606 898.899 577.038 896.436 583.777C894.672 590.884 893.379 598.217 892.428 605.699C891.546 621.168 890.432 636.428 888.056 650.863C884.142 664.477 877.448 676.455 867.78 686.62C855.611 695.37 840.861 702.428 824.198 708.018C806.512 712.853 788.354 716.848 770.49 720.263C753.561 723.814 737.922 727.187 723.848 730.404C711.523 734.055 700.763 737.472 691.373 740.478C683.28 743.675 675.977 746.14 669.086 747.692C662.628 749.087 655.995 749.363 648.991 748.499C641.718 747.393 633.741 745.212 625.033 742.086C615.716 738.976 605.583 735.216 594.71 730.989C583.148 727.219 570.869 723.345 557.956 719.514C544.404 716.531 530.283 713.819 515.728 711.447C508.235 710.62 500.664 709.871 493.009 709.21C485.232 708.761 477.414 708.369 469.549 708.018C461.605 707.849 453.635 707.679 445.669 707.499C437.667 707.418 429.671 707.274 421.737 707.032C413.788 706.82 406.011 706.449 398.418 705.924C390.851 705.32 383.493 704.485 376.35 703.406C369.265 702.188 362.411 700.669 355.803 698.846C349.28 696.832 342.998 694.47 336.963 691.752C325.194 685.622 314.422 677.991 304.591 668.922C295.12 658.838 286.49 647.382 278.607 634.689C270.947 621.197 263.903 606.702 257.404 591.389C250.976 575.656 244.994 559.407 239.439 542.828C233.921 526.254 228.835 509.626 224.242 493.131C219.77 476.986 215.864 461.14 212.614 445.72C209.563 430.832 207.21 416.416 205.597 402.493C204.116 389.081 203.307 376.063 203.104 363.393C202.806 351.013 202.932 338.796 203.427 326.65C203.547 314.548 203.892 302.365 204.492 290.064C204.65 277.681 205.132 265.125 206.047 252.462C206.795 239.766 208.229 227.029 210.479 214.329C212.41 204.869 217.695 186.177 221.08 176.961C224.89 167.858 233.968 149.883 239.2 141.008C242.796 135.119 246.557 129.314 250.473 123.589C254.364 117.864 258.378 112.201 262.481 106.597C266.516 100.971 270.619 95.3922 274.778 89.8815C278.854 84.3288 282.966 78.8334 287.13 73.3903C295.157 62.4034 303.4 51.7089 311.896 41.3904C320.23 31.0812 329.012 21.2999 338.31 12.1458C347.809 3.21134 357.989 -4.95969 368.802 -12.3001C379.961 -19.3211 391.712 -25.5065 403.95 -30.8311C416.322 -35.9054 428.969 -40.2138 441.72 -43.7785C454.31 -47.2559 466.791 -50.0844 479.086 -52.2907C491.007 -54.5568 502.679 -56.2581 514.109 -57.3792C525.176 -58.6586 536.094 -59.3882 546.935 -59.5572C557.591 -59.9249 568.315 -59.7621 579.161 -59.0684C590.04 -58.6186 601.18 -57.6839 612.587 -56.2743C624.188 -55.17 636.109 -53.6426 648.313 -51.7235C660.778 -50.1403 673.522 -48.181 686.466 -45.8462C696.313 -44.2137 716.247 -40.526 726.283 -38.4452C732.998 -37.063 739.722 -35.5457 746.414 -33.8883C753.132 -32.2567 759.818 -30.459 766.472 -28.4953" stroke="url(#paint8_linear_48_3417)" stroke-linecap="round" stroke-dasharray="25 8"/>
<path opacity="0.96" d="M779.908 1.0663C792.39 5.50256 804.482 10.6526 816.147 16.5088C827.713 22.6032 838.849 29.5235 849.549 37.3054C860.152 45.4352 870.352 54.4861 880.185 64.4399C889.944 74.795 899.394 86.0464 908.525 98.1203C917.612 110.545 926.364 123.704 934.722 137.466C942.914 151.374 950.553 165.698 957.496 180.221C963.936 194.571 969.374 208.86 973.596 222.881C976.946 236.365 978.805 249.34 979.054 261.683C978.368 273.371 976.156 284.422 972.585 294.92C968.709 305.064 964.121 315.021 959.289 325.051C955.422 335.456 952.231 346.5 950.156 358.398C950.051 371.301 951.409 385.316 954.119 400.378C958.337 416.201 963.013 432.574 967.385 449.053C971.165 465.118 973.005 480.357 972.126 494.328C968.718 506.779 961.924 517.586 951.834 526.8C939.784 534.854 925.776 542.113 910.834 549.175C896.89 556.807 884.382 565.253 873.965 574.842C866.35 586.084 860.933 598.517 857.229 611.818C855.086 626.019 853.079 640.125 850.361 653.559C846.704 666.389 840.939 677.69 832.792 687.22C822.562 695.384 809.975 701.71 795.483 706.369C779.722 710.044 763.089 712.563 746.244 714.203C729.719 715.708 713.946 716.804 699.3 717.631C685.941 718.834 673.969 719.853 663.336 720.632C653.996 721.777 645.652 722.508 638.085 722.671C631.179 722.992 624.54 722.581 617.908 721.353C611.289 720.172 604.3 718.196 596.805 715.453C588.897 712.885 580.287 709.746 570.977 706.169C561.028 703.04 550.337 699.706 538.927 696.315C526.872 693.609 514.149 691.011 500.875 688.549C487.036 686.845 472.762 685.265 458.181 683.747C443.248 682.764 428.195 681.616 413.181 680.127C398.121 678.693 383.667 676.59 369.914 673.658C356.415 670.269 343.755 665.769 331.98 660.078C320.595 653.605 310.137 645.802 300.565 636.714C291.408 626.779 283.078 615.591 275.545 603.294C268.324 590.305 261.789 576.371 255.918 561.694C250.27 546.636 245.212 531.076 240.741 515.226C236.475 499.348 232.791 483.42 229.733 467.616C226.892 452.087 224.703 436.846 223.181 422.008C221.88 407.596 221.223 393.627 221.223 380.098C221.28 366.978 221.851 354.2 222.89 341.749C223.719 329.472 224.835 317.349 226.191 305.299C227.101 293.23 228.175 281.11 229.404 268.932C230.23 256.639 231.339 244.297 232.847 231.918C234.23 219.547 236.284 207.247 239.114 195.117C242.205 183.14 246.289 171.421 251.426 159.995C256.951 148.782 263.489 137.839 271.004 127.158C278.649 116.554 286.833 106.318 295.385 96.4192C303.686 86.3735 312.144 76.5672 320.689 67.0011C328.846 57.248 337.104 47.7827 345.5 38.6806C353.689 29.5389 362.22 20.9196 371.136 12.9298C380.185 5.12581 389.809 -1.91125 399.982 -8.11536C410.487 -13.9903 421.56 -18.9947 433.107 -23.1294C444.881 -26.9836 456.966 -30.0361 469.24 -32.3314C481.47 -34.5047 493.69 -36.0381 505.796 -36.9645C517.647 -37.9598 529.292 -38.4427 540.701 -38.4307C551.805 -38.6107 562.709 -38.356 573.442 -37.649C583.985 -37.215 594.475 -36.3679 604.968 -35.0883C615.439 -34.1175 626.034 -32.7374 636.791 -30.9665C647.664 -29.5317 658.782 -27.711 670.136 -25.5103C681.657 -23.6422 693.44 -21.3924 705.43 -18.7383C717.591 -16.3751 729.914 -13.5533 742.33 -10.2462C754.84 -7.09963 767.388 -3.35163 779.898 1.06042" stroke="url(#paint9_linear_48_3417)" stroke-linecap="round" stroke-dasharray="17 1"/>
<path opacity="0.67" d="M793.548 32.9165C805.294 37.8178 816.707 43.4055 827.75 49.6956C838.699 56.1887 849.251 63.4648 859.395 71.5432C869.415 79.9311 879.007 89.1502 888.183 99.1814C897.204 109.528 905.786 120.658 913.889 132.446C921.775 144.494 929.12 157.103 935.816 170.118C942.143 183.165 947.673 196.421 952.256 209.716C956.242 222.752 959.085 235.599 960.655 248.071C961.467 260.066 960.942 271.574 959.087 282.543C956.648 293.068 953.145 303.177 948.809 312.966C944.604 322.746 940.19 332.61 935.924 342.796C932.814 353.614 930.517 365.183 929.273 377.664C929.702 391.135 931.226 405.56 933.643 420.804C937.013 436.586 940.364 452.607 943.064 468.431C944.936 483.633 944.872 497.822 942.307 510.609C937.547 521.891 929.888 531.531 919.47 539.611C907.503 546.643 893.911 552.886 879.543 558.889C866.012 565.438 853.652 572.683 843.034 580.937C834.759 590.767 828.398 601.707 823.607 613.497C820.352 626.271 817.497 639.074 814.358 651.381C810.765 663.301 805.697 673.873 798.833 682.802C790.314 690.486 779.79 696.316 767.521 700.368C753.927 703.326 739.247 704.876 724.013 705.288C708.618 705.314 693.504 704.688 679.035 703.598C665.364 702.735 652.764 701.649 641.282 700.373C630.866 699.53 621.482 698.48 612.984 697.128C605.23 696.146 597.983 694.762 591.038 692.881C584.313 691.301 577.507 689.191 570.466 686.576C563.203 684.273 555.434 681.535 547.097 678.433C538.274 675.789 528.745 672.925 518.566 669.906C507.78 667.502 496.33 665.047 484.281 662.569C471.71 660.707 458.636 658.802 445.188 656.788C431.415 655.199 417.442 653.323 403.401 651.025C389.328 648.776 375.735 645.869 362.758 642.186C350.004 638.148 337.988 633.108 326.774 627.011C315.97 620.28 306.017 612.398 296.918 603.382C288.284 593.67 280.488 582.869 273.52 571.098C266.958 558.76 261.177 545.587 256.146 531.77C251.48 517.638 247.513 503.064 244.265 488.229C241.342 473.388 239.096 458.495 237.559 443.712C236.286 429.162 235.687 414.837 235.761 400.863C236.003 387.225 236.825 373.931 238.191 361.015C239.509 348.36 241.243 335.982 243.285 323.852C245.025 311.8 246.962 299.851 249.017 287.953C250.622 275.978 252.33 263.974 254.15 251.947C255.606 239.817 257.324 227.694 259.428 215.661C261.461 203.65 264.119 191.833 267.535 180.284C271.231 168.964 275.845 158.004 281.471 147.455C287.458 137.16 294.402 127.252 302.239 117.701C310.201 108.235 318.643 99.2005 327.36 90.5304C335.854 81.7119 344.441 73.1512 353.034 64.8323C361.248 56.2877 369.474 48.017 377.729 40.1008C385.746 32.0815 393.972 24.5649 402.469 17.6478C411.017 10.8629 420.026 4.83214 429.489 -0.392804C439.239 -5.31475 449.491 -9.35679 460.194 -12.5254C471.175 -15.3974 482.506 -17.4346 494.066 -18.7049C505.726 -19.8107 517.457 -20.2687 529.175 -20.1209C540.767 -20.015 552.239 -19.4161 563.525 -18.3693C574.604 -17.5159 585.506 -16.2918 596.212 -14.7102C606.759 -13.4154 617.187 -11.7951 627.548 -9.84292C637.863 -8.24201 648.211 -6.31238 658.607 -4.05725C669.083 -2.15337 679.692 0.0760436 690.471 2.65676C701.376 4.90235 712.465 7.52182 723.718 10.5442C735.113 13.3119 746.655 16.5277 758.285 20.2623C770.002 23.8455 781.774 28.0378 793.538 32.9101" stroke="url(#paint10_linear_48_3417)" stroke-linecap="round" stroke-dasharray="21 11"/>
<path opacity="0.25" d="M805.515 66.1884C816.523 71.4913 827.19 77.4391 837.482 84.0362C847.662 90.7817 857.436 98.2391 866.751 106.399C875.898 114.782 884.558 123.887 892.687 133.656C900.59 143.647 907.905 154.242 914.577 165.342C920.927 176.577 926.54 188.173 931.332 200.007C935.668 211.788 939.068 223.634 941.422 235.36C943.205 246.858 943.874 258.096 943.373 268.975C942.336 279.522 940.201 289.691 937.068 299.485C933.739 309.115 929.754 318.571 925.333 327.988C921.364 337.674 917.492 347.694 914.015 358.233C911.672 369.526 910.113 381.63 909.421 394.593C910.02 408.429 911.346 423.019 913.13 438.159C915.395 453.588 917.301 468.952 918.322 483.849C918.399 497.991 916.631 510.971 912.623 522.462C906.766 532.527 898.479 540.989 887.917 547.951C876.141 553.996 863.055 559.268 849.324 564.258C836.29 569.789 824.228 575.865 813.574 582.815C804.873 591.227 797.807 600.655 792.163 610.881C787.949 622.144 784.318 633.542 780.74 644.6C777.066 655.514 772.453 665.282 766.586 673.606C759.509 680.871 750.835 686.375 740.645 690.109C729.237 692.717 716.71 693.781 703.443 693.529C689.696 692.681 675.833 690.944 662.225 688.542C648.962 686.166 636.373 683.455 624.606 680.506C613.581 677.943 603.426 675.251 594.096 672.41C585.43 670.041 577.361 667.498 569.743 664.743C562.427 662.418 555.248 659.834 548.054 656.962C540.773 654.533 533.213 651.836 525.287 648.891C516.988 646.421 508.157 643.768 498.772 640.944C488.899 638.668 478.426 636.261 467.413 633.721C455.933 631.702 443.979 629.501 431.648 627.086C419.023 625.003 406.173 622.561 393.221 619.62C380.242 616.731 367.673 613.205 355.618 608.961C343.798 604.443 332.642 599.028 322.221 592.697C312.206 585.887 303.012 578.067 294.659 569.309C286.774 559.987 279.76 549.765 273.592 538.711C267.918 527.215 263.07 515.032 259.051 502.311C255.469 489.337 252.684 476.004 250.685 462.479C249.053 448.911 248.165 435.322 248.001 421.815C248.107 408.452 248.87 395.281 250.259 382.379C251.733 369.672 253.716 357.218 256.137 345.052C258.439 332.985 261.016 321.112 263.814 309.391C266.259 297.636 268.82 285.939 271.434 274.268C273.623 262.466 275.869 250.647 278.235 238.862C280.287 226.971 282.593 215.169 285.27 203.531C287.939 191.96 291.214 180.687 295.19 169.797C299.45 159.166 304.578 148.987 310.601 139.339C316.993 129.954 324.248 121.047 332.295 112.593C340.48 104.229 349.055 96.3484 357.852 88.8688C366.427 81.2211 375.05 73.8571 383.641 66.7463C391.838 59.3668 399.981 52.2521 408.078 45.4672C415.898 38.5302 423.813 32.0445 431.87 26.103C439.939 20.243 448.319 15.0695 457.04 10.6782C465.995 6.53632 475.383 3.24657 485.157 0.815709C495.23 -1.31662 505.65 -2.61807 516.328 -3.14241C527.217 -3.46382 538.247 -3.12471 549.341 -2.15561C560.469 -1.17476 571.556 0.28466 582.532 2.19918C593.443 3.94848 604.212 6.04121 614.826 8.45409C625.36 10.5878 635.765 12.9883 646.067 15.6604C656.337 17.9884 666.576 20.5696 676.803 23.418C687.08 25.911 697.414 28.6947 707.821 31.7668C718.334 34.5256 728.953 37.6264 739.665 41.104C750.495 44.3496 761.409 48.0231 772.377 52.2034C783.417 56.2492 794.474 60.89 805.506 66.1814" stroke="url(#paint11_linear_48_3417)" stroke-linecap="round" stroke-dasharray="22 16"/>
<path opacity="0.16" d="M813.711 99.2446C823.935 104.875 833.766 111.057 843.153 117.76C852.442 124.595 861.242 132.004 869.5 139.959C877.558 148.095 885.042 156.78 891.879 165.936C898.44 175.255 904.301 184.983 909.396 195.037C914.134 205.152 918.014 215.467 921.001 225.862C923.548 236.201 925.125 246.477 925.693 256.611C925.82 266.582 924.948 276.328 923.123 285.796C920.982 295.132 918.05 304.267 914.446 313.242C910.908 322.318 907.037 331.462 903.043 340.806C899.639 350.638 896.481 360.97 893.784 371.908C892.082 383.649 890.992 396.141 890.545 409.364C890.995 423.29 891.8 437.733 892.698 452.423C893.733 467.169 894.166 481.599 893.587 495.336C892.05 508.209 888.822 519.841 883.662 529.978C876.954 538.78 868.255 546.083 857.728 551.966C846.273 557.058 833.763 561.417 820.724 565.465C808.277 570.001 796.608 574.986 786.098 580.669C777.181 587.71 769.644 595.638 763.369 604.29C758.391 614.017 754.071 623.938 750.066 633.67C746.207 643.481 741.854 652.367 736.697 660.047C730.74 666.91 723.594 672.177 715.26 675.792C705.878 678.345 695.462 679.315 684.26 678.88C672.422 677.722 660.229 675.512 647.975 672.441C635.699 669.199 623.739 665.462 612.277 661.372C601.199 657.532 590.742 653.535 580.953 649.436C571.606 645.804 562.821 642.103 554.519 638.354C546.463 635.106 538.673 631.779 531.015 628.35C523.331 625.435 515.548 622.403 507.598 619.245C499.358 616.588 490.788 613.818 481.828 610.913C472.47 608.494 462.664 605.937 452.441 603.224C441.823 600.921 430.818 598.411 419.509 595.611C407.95 593.087 396.194 590.166 384.382 586.739C372.532 583.355 361.072 579.389 350.105 574.774C339.345 569.969 329.224 564.395 319.809 558.049C310.768 551.335 302.527 543.807 295.13 535.486C288.196 526.766 282.133 517.292 276.958 507.171C272.259 496.707 268.439 485.694 265.492 474.266C262.983 462.63 261.308 450.713 260.453 438.641C259.949 426.515 260.199 414.346 261.155 402.244C262.33 390.191 264.116 378.262 266.443 366.505C268.815 354.801 271.604 343.254 274.72 331.879C277.668 320.467 280.821 309.138 284.096 297.899C287.047 286.52 290.039 275.146 293.082 263.785C295.732 252.257 298.457 240.731 301.296 229.287C303.896 217.747 306.772 206.366 310.006 195.229C313.283 184.219 317.124 173.569 321.613 163.395C326.397 153.502 331.958 144.166 338.324 135.408C345.036 126.96 352.507 119.038 360.67 111.629C368.973 104.324 377.582 97.5386 386.356 91.1852C394.936 84.666 403.522 78.4266 412.014 72.4584C420.145 66.1975 428.181 60.1915 436.091 54.4757C443.713 48.5439 451.326 43.0331 458.985 37.9885C466.588 32.9566 474.38 28.5443 482.402 24.8473C490.587 21.335 499.106 18.6121 507.939 16.705C517.056 15.0719 526.51 14.2444 536.216 14.1964C546.178 14.367 556.344 15.2302 566.633 16.7182C577.068 18.2688 587.544 20.3436 597.999 22.8735C608.52 25.291 618.97 28.0767 629.313 31.1677C639.68 34.0342 649.942 37.1481 660.1 40.493C670.291 43.5466 680.417 46.8032 690.494 50.2781C700.628 53.4352 710.756 56.8318 720.881 60.4842C731.105 63.8402 741.361 67.4985 751.62 71.4947C761.976 75.2687 772.347 79.4372 782.697 84.0607C793.096 88.5732 803.454 93.6164 813.693 99.2296" stroke="url(#paint12_linear_48_3417)" stroke-linecap="round" stroke-dasharray="17 16"/>
<path opacity="0.82" d="M816.606 130.16C825.996 135.997 834.894 142.248 843.291 148.887C851.566 155.619 859.283 162.765 866.366 170.302C873.272 177.958 879.495 185.99 885 194.316C890.229 202.747 894.682 211.431 898.317 220.281C901.615 229.162 904.044 238.127 905.594 247.086C906.781 256.019 907.071 264.88 906.471 273.612C905.582 282.292 903.886 290.857 901.455 299.298C898.927 307.79 895.865 316.285 892.393 324.822C889.149 333.674 885.788 342.8 882.45 352.287C879.725 362.377 877.266 373.029 875.19 384.306C873.894 396.299 873.005 408.94 872.48 422.124C872.492 435.791 872.566 449.711 872.459 463.618C872.218 477.363 871.25 490.59 869.247 502.966C866.328 514.433 861.92 524.633 855.872 533.387C848.583 540.934 839.695 547.076 829.35 551.933C818.326 556.122 806.466 559.622 794.196 562.793C782.38 566.415 771.227 570.369 761.007 574.878C752.069 580.602 744.273 587.083 737.583 594.223C732.016 602.408 727.153 610.85 722.733 619.217C718.629 627.841 714.356 635.786 709.676 642.761C704.517 649.179 698.54 654.234 691.727 657.81C684.082 660.474 675.568 661.645 666.334 661.4C656.427 660.397 646.06 658.228 635.435 655.104C624.54 651.623 613.681 647.483 603.025 642.864C592.453 638.324 582.237 633.531 572.446 628.58C562.875 623.987 553.732 619.352 544.974 614.718C536.365 610.549 528.029 606.398 519.89 602.277C511.712 598.649 503.575 595.029 495.397 591.385C486.998 588.223 478.427 585.039 469.64 581.777C460.533 578.95 451.154 576.037 441.5 572.958C431.533 570.255 421.307 567.335 410.902 564.148C400.281 561.171 389.561 557.826 378.864 554.021C368.128 550.257 357.808 545.992 347.995 541.215C338.36 536.27 329.353 530.72 321.049 524.556C313.084 518.121 305.919 511.038 299.572 503.353C293.654 495.357 288.604 486.791 284.447 477.73C280.729 468.414 277.889 458.669 275.914 448.61C274.346 438.378 273.604 427.907 273.648 417.321C274.002 406.647 275.079 395.908 276.796 385.189C278.678 374.434 281.102 363.7 284.004 353.055C286.889 342.345 290.104 331.677 293.599 321.07C296.885 310.326 300.337 299.58 303.887 288.848C307.12 277.908 310.411 266.943 313.742 255.985C316.766 244.845 319.881 233.743 323.138 222.746C326.246 211.702 329.622 200.883 333.365 190.369C337.186 180.009 341.55 170.09 346.492 160.71C351.72 151.636 357.643 143.164 364.269 135.318C371.205 127.787 378.794 120.833 386.995 114.434C395.297 108.148 403.848 102.392 412.515 97.0842C421.014 91.6159 429.479 86.4525 437.817 81.5546C445.854 76.3507 453.73 71.3801 461.44 66.6679C468.873 61.7065 476.215 57.0922 483.508 52.8817C490.701 48.6074 497.97 44.8739 505.376 41.754C512.866 38.7474 520.601 36.4589 528.549 34.9056C536.748 33.5773 545.217 33.024 553.932 33.2053C562.906 33.6031 572.108 34.6866 581.463 36.416C591.034 38.2561 600.723 40.6279 610.455 43.4755C620.342 46.3116 630.237 49.5091 640.09 53.0527C650.054 56.4296 659.967 60.0788 669.81 63.9513C679.739 67.6002 689.606 71.4475 699.403 75.4854C709.302 79.2663 719.147 83.2538 728.94 87.4479C738.842 91.4096 748.684 95.619 758.466 100.093C768.351 104.408 778.152 109.046 787.846 114.047C797.588 118.966 807.199 124.322 816.597 130.151" stroke="url(#paint13_linear_48_3417)" stroke-linecap="round" stroke-dasharray="10 21"/>
<path opacity="0.29" d="M813.723 157.329C822.197 163.244 830.134 169.417 837.495 175.824C844.746 182.316 851.371 189.057 857.33 196.018C863.103 203.087 868.178 210.36 872.491 217.802C876.57 225.316 879.872 232.949 882.365 240.65C884.586 248.398 885.999 256.181 886.6 263.924C886.96 271.716 886.541 279.47 885.4 287.18C884.124 294.967 882.215 302.772 879.787 310.597C877.399 318.654 874.66 326.862 871.683 335.292C869.009 344.168 866.296 353.43 863.657 363.13C861.536 373.442 859.617 384.313 857.932 395.71C856.784 407.704 855.824 420.157 854.974 432.935C854.37 445.977 853.593 459.02 852.438 471.828C850.999 484.312 848.781 496.125 845.579 506.979C841.548 516.955 836.265 525.683 829.62 533.043C822.004 539.355 813.121 544.402 803.123 548.279C792.618 551.628 781.472 554.335 770.011 556.702C758.92 559.485 748.363 562.486 738.562 565.928C729.757 570.426 721.898 575.553 714.98 581.25C709.01 587.954 703.728 594.922 698.955 601.926C694.595 609.324 690.293 616.256 685.846 622.467C681.198 628.357 676.065 633.144 670.372 636.693C664.097 639.528 657.167 641.007 649.636 641.188C641.517 640.648 632.916 638.939 623.968 636.205C614.625 633.028 605.139 629.081 595.636 624.517C585.996 619.857 576.477 614.832 567.166 609.552C557.863 604.469 548.794 599.28 540.006 594.069C531.213 589.211 522.632 584.394 514.23 579.617C505.754 575.273 497.358 570.998 489.001 566.765C480.455 562.961 471.859 559.188 463.181 555.412C454.233 552.011 445.164 548.566 435.983 545.033C426.544 541.787 416.996 538.389 407.391 534.774C397.606 531.342 387.857 527.608 378.213 523.507C368.535 519.421 359.331 514.975 350.652 510.138C342.125 505.192 334.232 499.785 327.048 493.928C320.15 487.868 314.019 481.335 308.702 474.366C303.748 467.155 299.648 459.533 296.392 451.556C293.523 443.364 291.487 434.859 290.283 426.122C289.415 417.2 289.327 408.095 289.966 398.886C290.849 389.53 292.385 380.092 294.506 370.618C296.723 361.009 299.417 351.368 302.532 341.719C305.587 331.903 308.94 322.033 312.516 312.146C315.894 302.047 319.422 291.887 323.051 281.682C326.426 271.253 329.868 260.778 333.391 250.322C336.691 239.693 340.128 229.144 343.731 218.757C347.269 208.351 351.084 198.21 355.255 188.454C359.559 178.874 364.337 169.79 369.654 161.269C375.237 153.071 381.413 145.495 388.205 138.585C395.257 131.972 402.87 125.964 410.996 120.527C419.232 115.209 427.628 110.423 436.099 106.076C444.434 101.601 452.717 97.4274 460.851 93.5033C468.723 89.2979 476.424 85.2997 483.919 81.5239C491.161 77.4754 498.252 73.7088 505.24 70.2919C512.094 66.7136 518.939 63.6037 525.805 60.9961C532.727 58.4318 539.758 56.48 546.945 55.1756C554.323 54.0264 561.888 53.5751 569.657 53.8058C577.674 54.235 585.888 55.3213 594.267 57.0306C602.896 58.8728 611.668 61.263 620.52 64.1497C629.592 67.0859 638.732 70.4193 647.874 74.1146C657.199 77.7347 666.53 81.6509 675.802 85.8116C685.244 89.8308 694.645 94.0622 703.949 98.479C713.407 102.721 722.801 107.149 732.089 111.755C741.515 116.184 750.843 120.832 760.031 125.689C769.322 130.417 778.464 135.412 787.422 140.687C796.441 145.89 805.216 151.43 813.707 157.329" stroke="url(#paint14_linear_48_3417)" stroke-linecap="round" stroke-dasharray="21 2"/>
<path opacity="0.44" d="M805.711 180.051C813.258 185.895 820.221 191.872 826.588 197.964C832.873 204.123 838.511 210.409 843.486 216.803C848.306 223.265 852.421 229.84 855.821 236.478C859.039 243.189 861.517 249.968 863.274 256.767C864.835 263.639 865.682 270.54 865.852 277.458C865.862 284.475 865.257 291.549 864.087 298.65C862.865 305.961 861.184 313.392 859.125 320.984C857.166 328.9 854.983 337.092 852.636 345.597C850.565 354.584 848.462 363.988 846.408 373.818C844.713 384.195 843.09 395.025 841.562 406.243C840.331 417.879 839.074 429.776 837.734 441.772C836.42 453.837 834.779 465.705 832.658 477.155C830.176 488.165 826.926 498.407 822.795 507.688C817.954 516.125 812.072 523.387 805.106 529.404C797.416 534.542 788.73 538.543 779.194 541.528C769.311 544.092 758.939 546.079 748.327 547.738C738.003 549.747 728.102 551.904 718.829 554.387C710.302 557.776 702.552 561.67 695.581 566.036C689.387 571.327 683.817 576.902 678.775 582.57C674.155 588.733 669.738 594.594 665.386 599.966C658.697 607.454 643.318 616.963 634.283 618.527C627.632 618.582 620.567 617.548 613.171 615.508C605.351 612.989 597.296 609.655 589.095 605.629C580.632 601.397 572.119 596.664 563.65 591.564C555.019 586.523 546.482 581.268 538.057 575.891C529.527 570.736 521.106 565.567 512.816 560.41C504.373 555.56 496.013 550.776 487.715 546.048C479.226 541.656 470.741 537.322 462.284 533.024C453.593 529.026 444.885 525.025 436.18 520.992C427.263 517.194 418.355 513.298 409.517 509.269C400.526 505.381 391.672 501.275 383.015 496.917C374.34 492.573 366.167 487.997 358.546 483.178C351.041 478.262 344.177 473.046 338.018 467.535C332.073 461.864 326.877 455.877 322.444 449.593C318.31 443.124 314.973 436.36 312.427 429.351C310.189 422.15 308.724 414.718 308.019 407.113C307.571 399.326 307.825 391.368 308.742 383.301C309.834 375.045 311.498 366.679 313.69 358.225C315.942 349.586 318.601 340.839 321.638 332.021C324.599 322.964 327.842 313.811 331.291 304.579C334.582 295.1 338.039 285.53 341.61 275.897C345.003 266.049 348.506 256.17 352.13 246.327C355.634 236.357 359.308 226.503 363.178 216.85C367.053 207.222 371.22 197.911 375.733 189.021C380.392 180.328 385.489 172.148 391.064 164.567C396.873 157.29 403.207 150.65 410.047 144.661C417.114 138.968 424.659 133.873 432.628 129.349C440.685 124.932 448.857 121.038 457.058 117.601C465.158 114.022 473.185 110.757 481.073 107.744C488.725 104.443 496.207 101.357 503.481 98.4572C510.52 95.2538 517.387 92.2977 524.112 89.6086C530.684 86.7146 537.178 84.2011 543.633 82.08C553.325 79.1016 573.198 75.933 583.528 75.9058C590.67 76.2291 597.967 77.1618 605.407 78.6697C613.088 80.3249 620.908 82.5136 628.819 85.1982C636.971 87.9559 645.221 91.1441 653.501 94.7148C662.01 98.2915 670.539 102.184 679.057 106.355C687.772 110.456 696.455 114.792 705.078 119.329C713.866 123.775 722.588 128.396 731.193 133.203C739.941 137.893 748.565 142.76 757.013 147.817C765.578 152.777 773.95 157.942 782.071 163.314C790.252 168.65 798.147 174.222 805.704 180.042" stroke="url(#paint15_linear_48_3417)" stroke-linecap="round" stroke-dasharray="8 2"/>
<path opacity="0.47" d="M794.104 198.767C800.719 204.413 806.773 210.138 812.257 215.89C817.666 221.696 822.468 227.557 826.646 233.47C832.413 242.451 840.558 260.755 842.939 270.062C844.519 279.592 844.741 299.255 843.597 309.505C842.701 316.641 841.439 323.986 839.89 331.57C838.453 339.503 836.816 347.754 835.051 356.343C833.478 365.353 831.828 374.749 830.137 384.506C828.651 394.66 827.109 405.114 825.512 415.808C824.022 426.727 822.356 437.702 820.455 448.59C818.443 459.385 816.014 469.824 813.078 479.726C809.761 489.144 805.762 497.764 800.972 505.437C795.635 512.358 789.451 518.215 782.417 522.966C774.847 527 766.533 530.052 757.583 532.231C748.4 534.091 738.84 535.434 729.097 536.465C719.587 537.816 710.417 539.22 701.728 540.849C693.616 543.251 686.107 546.048 679.23 549.218C672.962 553.223 667.253 557.483 662.027 561.894C654.923 569.212 641.81 582.588 635.191 587.77C628.085 591.711 611.99 594.264 602.948 592.844C596.456 591.176 589.709 588.702 582.776 585.501C575.543 582.044 568.166 578.016 560.719 573.537C553.034 568.986 545.313 564.131 537.612 559.045C529.698 554.043 521.818 548.93 513.99 543.75C505.974 538.765 497.983 533.775 490.064 528.806C481.926 524.068 473.84 519.363 465.798 514.698C457.549 510.242 449.346 505.81 441.227 501.374C432.931 497.11 424.717 492.801 416.654 488.424C408.477 484.146 400.488 479.731 392.763 475.166C385.013 470.605 377.796 465.928 371.123 461.129C364.543 456.262 358.592 451.21 353.281 445.993C348.15 440.646 343.722 435.102 339.997 429.377C335.103 420.449 329.232 401.438 328.188 391.402C327.906 384.462 328.253 377.381 329.169 370.173C330.218 362.752 331.777 355.204 333.78 347.534C335.829 339.631 338.262 331.604 341.022 323.455C343.73 315.056 346.708 306.533 349.9 297.91C353.005 289.05 356.283 280.091 359.718 271.091C363.055 261.918 366.552 252.728 370.211 243.622C373.825 234.433 377.655 225.404 381.715 216.61C385.819 207.898 390.228 199.525 394.968 191.586C399.856 183.871 405.153 176.677 410.857 170.062C416.772 163.756 423.131 158.059 429.906 152.994C436.88 148.201 444.248 143.968 451.959 140.306C459.746 136.746 467.611 133.69 475.478 131.05C483.276 128.316 490.98 125.866 498.552 123.671C505.956 121.224 513.174 118.956 520.199 116.857C530.353 113.37 549.602 107.095 558.832 104.511C567.944 102.1 586.251 99.4442 595.588 99.3554C601.996 99.5467 608.502 100.269 615.102 101.514C621.902 102.856 628.824 104.7 635.826 107.031C643.058 109.439 650.372 112.276 657.732 115.511C665.312 118.773 672.936 122.391 680.573 126.301C688.392 130.208 696.204 134.379 703.973 138.768C711.905 143.124 719.781 147.679 727.536 152.424C735.443 157.101 743.206 161.954 750.801 166.973C758.504 171.942 765.988 177.085 773.215 182.387C780.495 187.664 787.473 193.118 794.097 198.757" stroke="url(#paint16_linear_48_3417)" stroke-linecap="round" stroke-dasharray="16 6"/>
<path opacity="0.7" d="M780.728 214.962C786.466 220.35 791.691 225.778 796.406 231.229C803.116 239.486 813.706 256.258 817.578 264.805C820.754 273.536 824.398 291.578 824.984 300.964C825.192 307.459 824.993 314.118 824.44 320.977C823.902 328.075 823.073 335.428 821.994 343.039C820.975 350.957 819.773 359.172 818.405 367.686C817.128 376.515 815.714 385.625 814.173 394.968C812.69 404.551 811.062 414.296 809.243 424.108C807.407 433.958 805.295 443.724 802.859 453.242C800.259 462.547 797.209 471.41 793.656 479.684C789.767 487.456 785.279 494.466 780.143 500.595C774.582 506.085 768.36 510.632 761.478 514.237C754.225 517.264 746.419 519.473 738.146 520.932C729.718 522.173 721.018 522.968 712.166 523.46C703.479 524.232 695.079 525 687.034 525.912C679.414 527.463 672.262 529.294 665.618 531.419C656.573 535.805 641.116 546.185 634.342 551.57C627.925 556.975 615.081 565.208 608.329 567.554C601.08 568.715 585.144 566.672 576.469 563.612C570.349 561.092 564.063 557.99 557.659 554.382C551.007 550.645 544.254 546.516 537.443 542.079C530.399 537.626 523.318 532.963 516.22 528.144C508.926 523.41 501.619 518.588 494.341 513.705C486.868 508.948 479.42 504.188 472.028 499.407C464.459 494.78 456.946 490.132 449.558 485.486C442.01 480.956 434.578 476.393 427.341 471.788C420.012 467.256 412.894 462.643 406.062 457.917C399.216 453.212 392.868 448.465 387.042 443.672C381.289 438.818 376.107 433.888 371.516 428.868C365.149 421.123 355.775 404.868 352.792 396.33C350.674 387.417 349.569 368.642 350.448 358.785C351.293 351.973 352.593 345.007 354.291 337.91C356.029 330.594 358.127 323.13 360.52 315.545C362.911 307.741 365.565 299.81 368.465 291.789C371.307 283.57 374.373 275.291 377.636 266.996C380.866 258.585 384.297 250.209 387.95 241.94C391.596 233.661 395.487 225.57 399.631 217.745C403.867 210.04 408.393 202.701 413.237 195.794C418.226 189.111 423.566 182.934 429.271 177.324C435.152 171.988 441.403 167.228 448.015 163.052C454.774 159.127 461.852 155.742 469.215 152.865C476.657 150.089 484.129 147.79 491.591 145.885C499.003 143.901 506.336 142.203 513.546 140.722C520.624 139.036 527.538 137.524 534.285 136.161C544.069 133.786 562.615 129.487 571.465 127.699C580.123 125.936 597.24 123.949 605.799 123.88C614.537 124.263 632.515 127.315 641.771 129.989C648.141 131.974 654.575 134.361 661.051 137.135C667.72 139.95 674.411 143.124 681.12 146.605C688.009 150.108 694.88 153.884 701.718 157.931C708.704 161.951 715.638 166.213 722.472 170.662C729.428 175.088 736.266 179.715 742.926 184.497C749.684 189.258 756.235 194.192 762.546 199.268C768.908 204.338 774.974 209.571 780.722 214.952" stroke="url(#paint17_linear_48_3417)" stroke-linecap="round" stroke-dasharray="14 18"/>
<path opacity="0.35" d="M767.089 230.637C774.249 238.302 786.335 253.929 791.216 261.902C797.223 272.735 801.406 283.926 803.91 295.474C806.168 307.534 806.919 320.254 806.398 333.701C805.866 347.982 804.298 363.218 801.911 379.274C799.588 396.107 796.405 413.45 792.292 430.703C787.806 447.672 781.9 463.466 774.332 477.155C765.63 489.042 754.872 497.98 742.119 503.654C735.34 505.797 728.149 507.279 720.611 508.143C712.987 508.855 705.157 509.176 697.205 509.233C689.363 509.508 681.743 509.752 674.407 510.075C667.356 510.905 660.663 511.921 654.35 513.163C642.72 517.419 632.439 522.249 623.284 527.114C614.695 533.034 606.402 537.654 598.133 540.421C589.376 542.65 580.114 542.39 570.351 539.746C559.694 536.271 548.481 530.736 536.931 523.632C524.5 516.263 511.821 507.86 499.133 498.849C485.697 490.071 472.353 480.936 459.396 471.61C452.725 467.068 446.176 462.458 439.817 457.808C433.372 453.192 427.152 448.504 421.193 443.735C415.214 438.978 409.698 434.214 404.649 429.427C399.651 424.612 395.155 419.741 391.177 414.846C383.527 404.79 378.056 394.389 374.691 383.658C371.841 372.371 371.006 360.591 371.97 348.36C373.258 335.401 376.075 321.889 380.157 307.973C384.315 293.361 389.534 278.432 395.691 263.536C401.9 248.399 409.103 233.728 417.298 220.086C425.858 206.999 435.628 195.471 446.618 185.95C452.332 181.579 458.353 177.73 464.669 174.407C471.101 171.312 477.8 168.694 484.741 166.553C491.733 164.504 498.75 162.879 505.744 161.615C512.699 160.306 519.598 159.254 526.374 158.432C539.647 156.199 552.376 154.563 564.438 153.424C576.085 151.357 587.277 149.999 598.065 149.509C608.83 148.577 619.516 148.903 630.164 150.584C641.187 152.293 652.372 155.498 663.614 160.11C675.408 164.851 687.285 170.879 699.002 177.997C711.231 185.147 723.197 193.23 734.603 202.095C740.414 206.507 746.057 211.093 751.479 215.857C756.938 220.613 762.154 225.532 767.083 230.626" stroke="url(#paint18_linear_48_3417)" stroke-linecap="round" stroke-dasharray="25 13"/>
<path opacity="0.89" d="M753.954 247.608C762.303 257.19 769.188 267.162 774.615 277.431C779.842 287.874 783.588 298.805 785.968 310.196C788.146 321.994 789.049 334.466 788.823 347.564C788.482 361.223 787.121 375.572 784.814 390.343C782.364 405.429 778.895 420.546 774.345 435.117C769.318 449.106 762.919 461.708 755.039 472.278C746.307 481.286 735.944 487.793 724.076 491.607C711.582 494.188 698.017 494.862 683.842 494.177C670.008 494.219 656.937 494.29 644.932 494.85C633.853 497.285 623.809 500.198 614.698 503.252C606.11 507.459 597.936 510.897 589.993 513.136C581.842 515.296 573.477 515.66 564.867 514.14C555.633 512.084 545.987 508.225 536.081 502.826C525.441 497.112 514.554 490.226 503.624 482.457C492.08 474.727 480.589 466.391 469.425 457.61C457.865 448.997 446.834 439.959 436.679 430.545C426.463 421.161 417.863 411.675 410.959 402.087C404.337 392.284 399.522 382.183 396.481 371.825C393.81 361.03 392.852 349.8 393.436 338.207C394.322 326.067 396.585 313.488 400.056 300.658C403.699 287.382 408.449 273.993 414.184 260.823C420.106 247.638 427.067 235.073 435.014 223.578C443.334 212.69 452.766 203.29 463.25 195.704C474.176 189 486.118 184.09 498.903 180.992C511.867 178.234 524.801 176.821 537.444 176.377C549.843 175.38 561.816 174.939 573.228 174.94C584.332 174.095 595.004 173.797 605.248 174.107C615.421 173.871 625.412 174.563 635.2 176.272C645.224 177.827 655.251 180.583 665.197 184.528C675.533 188.477 685.842 193.615 695.952 199.807C706.431 206.013 716.645 213.188 726.372 221.22C736.302 229.218 745.579 238.025 753.949 247.597" stroke="url(#paint19_linear_48_3417)" stroke-linecap="round" stroke-dasharray="22 19"/>
<path opacity="0.88" d="M741.231 266.787C748.225 275.732 754.018 285.177 758.627 295.014C763.081 304.991 766.316 315.488 768.394 326.44C770.297 337.668 771.079 349.437 770.82 361.639C770.391 374.126 768.943 386.949 766.512 399.829C763.828 412.675 760.095 425.178 755.262 436.854C749.995 447.818 743.49 457.409 735.744 465.138C727.412 471.638 717.81 476.086 707.087 478.384C695.994 479.853 684.079 479.802 671.676 478.607C659.499 477.986 647.836 477.238 636.917 476.735C626.589 477.685 617.015 478.963 608.159 480.395C599.703 482.907 591.676 485.001 583.966 486.372C576.196 487.994 568.424 488.371 560.605 487.396C552.397 486.18 543.972 483.506 535.412 479.479C526.338 475.213 517.085 469.763 507.827 463.333C498.098 456.859 488.436 449.578 479.085 441.652C469.415 433.808 460.198 425.36 451.716 416.379C443.203 407.412 436.005 398.249 430.203 388.934C424.598 379.486 420.482 369.746 417.815 359.768C415.438 349.519 414.493 338.9 414.882 328.04C415.541 316.829 417.441 305.366 420.478 293.821C423.732 282.071 428.068 270.412 433.393 259.135C438.967 248.031 445.538 237.632 453.062 228.31C460.908 219.583 469.734 212.21 479.485 206.428C489.54 201.376 500.471 197.885 512.102 195.952C523.868 194.316 535.618 193.882 547.141 194.323C558.52 194.357 569.585 194.938 580.205 195.931C590.623 196.227 600.674 196.941 610.323 198.111C619.891 198.723 629.226 199.986 638.28 201.996C647.463 203.737 656.519 206.387 665.38 209.987C674.491 213.496 683.466 218.005 692.196 223.471C701.153 228.906 709.837 235.286 718.053 242.539C726.406 249.761 734.2 257.845 741.231 266.787Z" stroke="url(#paint20_linear_48_3417)" stroke-linecap="round" stroke-dasharray="9 21"/>
<path opacity="0.78" d="M728.133 287.781C733.89 296.036 738.645 304.801 742.394 313.966C746.038 323.217 748.637 332.93 750.249 342.988C751.697 353.177 752.151 363.725 751.651 374.432C750.954 385.209 749.295 396.014 746.687 406.57C743.827 416.895 739.966 426.646 735.13 435.47C729.94 443.629 723.703 450.517 716.47 455.82C708.854 460.235 700.29 463.024 690.88 464.164C681.264 464.785 671.003 464.191 660.329 462.658C649.797 461.568 639.574 460.235 629.84 458.965C620.463 458.752 611.584 458.698 603.232 458.743C595.142 459.717 587.406 460.471 579.998 460.789C572.6 461.523 565.305 461.458 558.103 460.462C550.685 459.48 543.219 457.407 535.763 454.235C527.964 450.961 520.122 446.645 512.351 441.368C504.267 436.04 496.288 429.851 488.615 422.916C480.715 415.998 473.22 408.373 466.345 400.089C459.437 391.817 453.616 383.239 448.92 374.466C444.37 365.617 441.022 356.472 438.85 347.139C436.908 337.651 436.161 327.92 436.551 318.062C437.174 308.062 438.895 297.962 441.635 287.962C444.606 277.955 448.573 268.192 453.469 258.942C458.593 249.956 464.654 241.715 471.569 234.48C478.735 227.785 486.766 222.265 495.558 218.117C504.574 214.542 514.314 212.266 524.672 211.338C535.109 210.639 545.554 210.984 555.845 212.122C566.05 212.981 576.05 214.38 585.728 216.161C595.274 217.423 604.542 219.052 613.452 221.028C622.302 222.52 630.91 224.478 639.216 226.984C647.581 229.162 655.748 232.011 663.65 235.581C671.683 238.995 679.513 243.205 687.034 248.224C694.687 253.161 702.031 258.943 708.913 265.552C715.879 272.118 722.338 279.526 728.133 287.781Z" stroke="url(#paint21_linear_48_3417)" stroke-linecap="round" stroke-dasharray="20 3"/>
<path opacity="0.7" d="M713.695 308.913C718.313 316.371 722.047 324.249 724.934 332.416C727.738 340.63 729.649 349.147 730.694 357.849C731.622 366.56 731.66 375.415 730.859 384.207C729.888 392.913 728.044 401.433 725.362 409.515C722.476 417.304 718.73 424.443 714.149 430.684C709.345 436.397 703.692 441.034 697.257 444.407C690.618 447.186 683.24 448.725 675.233 449.03C667.119 449.039 658.495 448.105 649.495 446.397C640.58 444.991 631.825 443.298 623.372 441.519C615.114 440.469 607.149 439.433 599.541 438.417C592.082 438.095 584.897 437.635 577.974 436.907C571.08 436.618 564.333 435.828 557.756 434.446C551.063 433.206 544.441 431.197 537.935 428.406C531.237 425.621 524.604 421.997 518.136 417.553C511.473 413.103 504.993 407.852 498.826 401.873C492.516 395.898 486.594 389.209 481.206 381.849C475.797 374.495 471.281 366.802 467.692 358.883C464.181 350.942 461.651 342.758 460.085 334.433C458.675 326.064 458.253 317.56 458.773 309.054C459.484 300.541 461.128 292.078 463.672 283.855C466.393 275.738 469.998 267.975 474.413 260.766C479.007 253.845 484.418 247.634 490.569 242.324C496.894 237.46 503.932 233.577 511.622 230.838C519.455 228.517 527.893 227.269 536.841 227.132C545.854 227.182 554.901 228.116 563.839 229.733C572.748 231.201 581.52 233.168 590.068 235.536C598.556 237.522 606.832 239.871 614.816 242.508C622.78 244.776 630.507 247.402 637.959 250.419C645.424 253.143 652.665 256.353 659.607 260.084C666.619 263.637 673.368 267.796 679.777 272.583C686.263 277.264 692.403 282.635 698.084 288.692C703.816 294.711 709.062 301.447 713.695 308.913Z" stroke="url(#paint22_linear_48_3417)" stroke-linecap="round" stroke-dasharray="9 9"/>
<path opacity="0.89" d="M697.202 327.707C704.271 340.769 708.286 354.768 709.405 368.801C710.18 382.732 707.928 396.214 702.905 407.93C697.381 418.673 689.029 426.699 678.272 430.948C667.117 433.834 653.804 433.318 639.016 429.736C624.428 427.003 610.156 423.284 596.81 419.335C583.756 417.298 571.288 414.464 559.701 410.4C547.88 407.103 536.481 401.628 526.048 393.798C515.145 386.048 505.218 375.774 497.17 363.179C489.052 350.588 483.997 336.89 481.984 322.96C480.378 309.093 481.982 295.207 486.524 282.396C491.567 270.176 499.494 259.698 509.899 252.135C520.702 245.829 533.829 242.768 548.733 243.432C563.763 244.663 578.933 248.517 593.466 254.011C607.904 258.646 621.797 264.58 634.601 271.564C647.467 277.701 659.472 285.373 670.037 294.662C680.757 303.63 690.075 314.647 697.202 327.707Z" stroke="url(#paint23_linear_48_3417)" stroke-linecap="round" stroke-dasharray="2 2"/>
<path opacity="0.2" d="M678.542 341.703C683.694 352.55 686.307 363.558 686.6 374.044C686.691 384.373 684.381 393.817 679.918 401.499C675.202 408.563 668.354 413.415 659.724 415.517C650.928 416.951 640.502 415.929 628.88 412.579C617.342 409.758 605.835 405.813 594.882 401.356C584.033 398.059 573.559 394.02 563.854 389.198C554.036 384.994 544.763 379.421 536.512 372.365C528.044 365.427 520.594 356.76 514.863 346.488C509.073 336.213 505.76 325.317 504.833 314.545C504.113 303.893 505.886 293.594 509.921 284.486C514.247 275.872 520.804 268.842 529.257 264.168C537.932 260.294 548.398 258.921 560.272 260.394C572.22 262.244 584.337 266.256 596.033 271.676C607.71 276.688 619 282.879 629.402 289.919C639.844 296.471 649.505 304.1 657.831 312.721C666.253 321.138 673.365 330.847 678.542 341.703Z" stroke="url(#paint24_linear_48_3417)" stroke-linecap="round" stroke-dasharray="11 8"/>
<path opacity="0.29" d="M658.244 349.208C661.688 357.562 663.214 365.537 663.011 372.693C661.725 382.783 650.891 396.064 641.894 398.218C635.422 398.776 627.774 397.629 619.206 394.765C610.657 392.203 602.035 388.562 593.736 384.305C585.447 380.619 577.395 376.255 569.963 371.338C562.466 366.801 555.49 361.418 549.464 355.263C543.32 349.212 538.129 342.178 534.348 334.313C530.533 326.452 528.602 318.507 528.426 310.945C529.176 300.056 539.299 283.191 548.206 278.629C554.68 276.576 562.445 276.333 571.256 278.133C580.091 280.176 589.078 283.839 597.793 288.638C606.495 293.299 614.947 298.966 622.707 305.286C630.479 311.395 637.615 318.256 643.67 325.624C649.762 332.906 654.777 340.857 658.244 349.208Z" stroke="url(#paint25_linear_48_3417)" stroke-linecap="round" stroke-dasharray="4 26"/>
<path opacity="0.67" d="M637.231 349.92C640.711 365.72 625.915 380.253 610.291 376.202C599.085 372.374 587.488 365.283 577.662 356.887C567.722 349.111 559.395 339.256 555.078 328.515C550.726 317.787 551.409 308.164 556.12 301.724C560.967 295.755 569.797 293.587 581.302 296.774C592.837 300.379 604.802 308.198 614.853 317.83C624.942 327.263 633.193 338.621 637.231 349.92Z" stroke="url(#paint26_linear_48_3417)" stroke-linecap="round" stroke-dasharray="24 3"/>
</g>
<defs>
<linearGradient id="paint0_linear_48_3417" x1="607.872" y1="-231.811" x2="607.872" y2="940.193" gradientUnits="userSpaceOnUse">
<stop stop-color="#1F89DB"/>
<stop offset="1" stop-color="#2E2AF4"/>
</linearGradient>
<linearGradient id="paint1_linear_48_3417" x1="640.043" y1="-210.076" x2="573.564" y2="918.767" gradientUnits="userSpaceOnUse">
<stop stop-color="#1F89DB"/>
<stop offset="1" stop-color="#2E2AF4"/>
</linearGradient>
<linearGradient id="paint2_linear_48_3417" x1="669.661" y1="-186.614" x2="541.766" y2="895.46" gradientUnits="userSpaceOnUse">
<stop stop-color="#1F89DB"/>
<stop offset="1" stop-color="#2E2AF4"/>
</linearGradient>
<linearGradient id="paint3_linear_48_3417" x1="696.635" y1="-161.631" x2="512.583" y2="870.476" gradientUnits="userSpaceOnUse">
<stop stop-color="#1F89DB"/>
<stop offset="1" stop-color="#2E2AF4"/>
</linearGradient>
<linearGradient id="paint4_linear_48_3417" x1="720.904" y1="-135.363" x2="486.105" y2="844.04" gradientUnits="userSpaceOnUse">
<stop stop-color="#1F89DB"/>
<stop offset="1" stop-color="#2E2AF4"/>
</linearGradient>
<linearGradient id="paint5_linear_48_3417" x1="742.425" y1="-108.052" x2="462.411" y2="816.375" gradientUnits="userSpaceOnUse">
<stop stop-color="#1F89DB"/>
<stop offset="1" stop-color="#2E2AF4"/>
</linearGradient>
<linearGradient id="paint6_linear_48_3417" x1="761.18" y1="-79.9361" x2="441.568" y2="787.707" gradientUnits="userSpaceOnUse">
<stop stop-color="#1F89DB"/>
<stop offset="1" stop-color="#2E2AF4"/>
</linearGradient>
<linearGradient id="paint7_linear_48_3417" x1="777.096" y1="-51.097" x2="423.948" y2="757.512" gradientUnits="userSpaceOnUse">
<stop stop-color="#1F89DB"/>
<stop offset="1" stop-color="#2E2AF4"/>
</linearGradient>
<linearGradient id="paint8_linear_48_3417" x1="789.528" y1="-22.4148" x2="407.872" y2="727.825" gradientUnits="userSpaceOnUse">
<stop stop-color="#1F89DB"/>
<stop offset="1" stop-color="#2E2AF4"/>
</linearGradient>
<linearGradient id="paint9_linear_48_3417" x1="800.162" y1="6.84154" x2="396.003" y2="697.554" gradientUnits="userSpaceOnUse">
<stop stop-color="#1F89DB"/>
<stop offset="1" stop-color="#2E2AF4"/>
</linearGradient>
<linearGradient id="paint10_linear_48_3417" x1="807.854" y1="35.9567" x2="386.83" y2="667.167" gradientUnits="userSpaceOnUse">
<stop stop-color="#1F89DB"/>
<stop offset="1" stop-color="#2E2AF4"/>
</linearGradient>
<linearGradient id="paint11_linear_48_3417" x1="812.858" y1="64.7744" x2="380.498" y2="636.995" gradientUnits="userSpaceOnUse">
<stop stop-color="#1F89DB"/>
<stop offset="1" stop-color="#2E2AF4"/>
</linearGradient>
<linearGradient id="paint12_linear_48_3417" x1="815.238" y1="93.0802" x2="376.954" y2="607.253" gradientUnits="userSpaceOnUse">
<stop stop-color="#1F89DB"/>
<stop offset="1" stop-color="#2E2AF4"/>
</linearGradient>
<linearGradient id="paint13_linear_48_3417" x1="815.067" y1="120.668" x2="376.116" y2="578.165" gradientUnits="userSpaceOnUse">
<stop stop-color="#1F89DB"/>
<stop offset="1" stop-color="#2E2AF4"/>
</linearGradient>
<linearGradient id="paint14_linear_48_3417" x1="812.392" y1="147.29" x2="377.862" y2="549.878" gradientUnits="userSpaceOnUse">
<stop stop-color="#1F89DB"/>
<stop offset="1" stop-color="#2E2AF4"/>
</linearGradient>
<linearGradient id="paint15_linear_48_3417" x1="807.299" y1="172.719" x2="382.07" y2="522.559" gradientUnits="userSpaceOnUse">
<stop stop-color="#1F89DB"/>
<stop offset="1" stop-color="#2E2AF4"/>
</linearGradient>
<linearGradient id="paint16_linear_48_3417" x1="799.965" y1="196.82" x2="388.682" y2="496.448" gradientUnits="userSpaceOnUse">
<stop stop-color="#1F89DB"/>
<stop offset="1" stop-color="#2E2AF4"/>
</linearGradient>
<linearGradient id="paint17_linear_48_3417" x1="790.048" y1="219.846" x2="398.224" y2="471.428" gradientUnits="userSpaceOnUse">
<stop stop-color="#1F89DB"/>
<stop offset="1" stop-color="#2E2AF4"/>
</linearGradient>
<linearGradient id="paint18_linear_48_3417" x1="779.15" y1="240.43" x2="408.833" y2="448.525" gradientUnits="userSpaceOnUse">
<stop stop-color="#1F89DB"/>
<stop offset="1" stop-color="#2E2AF4"/>
</linearGradient>
<linearGradient id="paint19_linear_48_3417" x1="766.05" y1="259.824" x2="421.954" y2="427.376" gradientUnits="userSpaceOnUse">
<stop stop-color="#1F89DB"/>
<stop offset="1" stop-color="#2E2AF4"/>
</linearGradient>
<linearGradient id="paint20_linear_48_3417" x1="751.261" y1="277.197" x2="436.836" y2="408.031" gradientUnits="userSpaceOnUse">
<stop stop-color="#1F89DB"/>
<stop offset="1" stop-color="#2E2AF4"/>
</linearGradient>
<linearGradient id="paint21_linear_48_3417" x1="735.03" y1="292.533" x2="453.352" y2="390.746" gradientUnits="userSpaceOnUse">
<stop stop-color="#1F89DB"/>
<stop offset="1" stop-color="#2E2AF4"/>
</linearGradient>
<linearGradient id="paint22_linear_48_3417" x1="717.524" y1="305.717" x2="471.31" y2="375.629" gradientUnits="userSpaceOnUse">
<stop stop-color="#1F89DB"/>
<stop offset="1" stop-color="#2E2AF4"/>
</linearGradient>
<linearGradient id="paint23_linear_48_3417" x1="698.912" y1="316.85" x2="490.563" y2="362.969" gradientUnits="userSpaceOnUse">
<stop stop-color="#1F89DB"/>
<stop offset="1" stop-color="#2E2AF4"/>
</linearGradient>
<linearGradient id="paint24_linear_48_3417" x1="679.437" y1="325.403" x2="510.711" y2="352.462" gradientUnits="userSpaceOnUse">
<stop stop-color="#1F89DB"/>
<stop offset="1" stop-color="#2E2AF4"/>
</linearGradient>
<linearGradient id="paint25_linear_48_3417" x1="659.262" y1="331.593" x2="531.643" y2="344.423" gradientUnits="userSpaceOnUse">
<stop stop-color="#1F89DB"/>
<stop offset="1" stop-color="#2E2AF4"/>
</linearGradient>
<linearGradient id="paint26_linear_48_3417" x1="636.922" y1="334.297" x2="553.095" y2="337.767" gradientUnits="userSpaceOnUse">
<stop stop-color="#1F89DB"/>
<stop offset="1" stop-color="#2E2AF4"/>
</linearGradient>
</defs>
</svg>
