<svg width="24" height="24" viewBox="0 0 24 24" fill="none" xmlns="http://www.w3.org/2000/svg">
<path d="M24 12C24 5.37258 18.6274 0 12 0C5.37258 0 0 5.37258 0 12C0 18.6274 5.37258 24 12 24C18.6274 24 24 18.6274 24 12Z" fill="white"/>
<path d="M7.425 9.14995C7.425 8.99995 7.35 8.84995 7.275 8.77495L6.15 7.42495V7.19995H9.6L12.3 13.125L14.7 7.19995H18V7.42495L17.025 8.32495C16.95 8.39995 16.875 8.47495 16.95 8.62495V15.375C16.95 15.45 16.95 15.6 17.025 15.675L17.925 16.575V16.8H13.2V16.575L14.175 15.6C14.25 15.525 14.25 15.45 14.25 15.3V9.82495L11.55 16.65H11.25L8.1 9.82495V14.4C8.1 14.625 8.175 14.775 8.25 14.925L9.525 16.425V16.65H6V16.425L7.275 14.925C7.425 14.775 7.5 14.625 7.425 14.4V9.14995Z" fill="#141414"/>
</svg>
