<svg width="24" height="24" viewBox="0 0 24 24" fill="none" xmlns="http://www.w3.org/2000/svg">
<path d="M24 12C24 5.37258 18.6274 0 12 0V0C5.37258 0 0 5.37258 0 12V12C0 18.6274 5.37258 24 12 24V24C18.6274 24 24 18.6274 24 12V12Z" fill="white"/>
<path fill-rule="evenodd" clip-rule="evenodd" d="M14.1418 13.8977C13.6036 13.8977 13.1514 13.4652 13.1514 12.9319C13.1514 12.3986 13.6036 11.9518 14.1418 11.9518C14.68 11.9518 15.1165 12.3986 15.1165 12.9319C15.1165 13.4652 14.68 13.8977 14.1418 13.8977ZM14.3704 15.7723C13.8691 16.2686 13.096 16.5098 12.007 16.5098C12.0048 16.5098 12.0021 16.5094 11.9994 16.5094C11.9971 16.5094 11.9944 16.5098 11.9917 16.5098C10.9027 16.5098 10.1301 16.2686 9.6292 15.7723C9.4753 15.6198 9.4753 15.3732 9.6292 15.2212C9.78265 15.0691 10.0315 15.0691 10.1854 15.2212C10.531 15.5636 11.1219 15.7304 11.9917 15.7304C11.9944 15.7304 11.9971 15.7308 11.9994 15.7308C12.0021 15.7308 12.0048 15.7304 12.007 15.7304C12.8769 15.7304 13.4682 15.5636 13.8142 15.2212C13.9681 15.0687 14.217 15.0691 14.3704 15.2212C14.5239 15.3737 14.5239 15.6202 14.3704 15.7723ZM8.8831 12.9319C8.8831 12.3991 9.33446 11.9518 9.87221 11.9518C10.4104 11.9518 10.8469 12.3991 10.8469 12.9319C10.8469 13.4652 10.4104 13.8977 9.87221 13.8977C9.33446 13.8977 8.8831 13.4652 8.8831 12.9319ZM16.7986 6.77943C17.1631 6.77943 17.4597 7.07328 17.4597 7.43401C17.4597 7.79518 17.1631 8.08903 16.7986 8.08903C16.4341 8.08903 16.1376 7.79518 16.1376 7.43401C16.1376 7.07328 16.4341 6.77943 16.7986 6.77943ZM19.1998 11.8711C19.1998 10.9254 18.4236 10.1562 17.4691 10.1562C17.056 10.1562 16.6767 10.3007 16.3788 10.541C15.3235 9.88377 13.9843 9.48781 12.5488 9.40398L13.2976 7.05812L15.3555 7.53835C15.4095 8.28077 16.0359 8.86846 16.7986 8.86846C17.5965 8.86846 18.2458 8.22503 18.2458 7.43401C18.2458 6.64343 17.5965 6 16.7986 6C16.2406 6 15.7555 6.3148 15.5139 6.77452L13.1226 6.21671C12.9223 6.16989 12.7198 6.28404 12.6577 6.47845L11.728 9.39016C10.1814 9.42762 8.7274 9.82491 7.59475 10.5205C7.3009 10.2927 6.93145 10.1562 6.5305 10.1562C5.57605 10.1562 4.7998 10.9254 4.7998 11.8711C4.7998 12.4557 5.0968 12.9725 5.54905 13.282C5.53015 13.418 5.52025 13.5548 5.52025 13.6935C5.52025 14.8756 6.2137 15.9752 7.4728 16.7894C8.6797 17.5702 10.2772 18 11.9706 18C13.6639 18 15.2614 17.5702 16.4683 16.7894C17.7274 15.9752 18.4209 14.8756 18.4209 13.6935C18.4209 13.5673 18.4123 13.442 18.3966 13.3176C18.879 13.0131 19.1998 12.4784 19.1998 11.8711Z" fill="#141414"/>
</svg>
