<svg width="24" height="24" viewBox="0 0 24 24" fill="none" xmlns="http://www.w3.org/2000/svg">
<rect width="24" height="24" rx="12" fill="white"/>
<path d="M18.3601 8.94005C17.9401 9.12005 17.4601 9.24005 16.9801 9.30005C17.4601 9.00005 17.8801 8.52005 18.0601 7.98005C17.5801 8.28005 17.1001 8.46005 16.5001 8.58005C16.0801 8.10005 15.4201 7.80005 14.7601 7.80005C13.4401 7.80005 12.3601 8.88005 12.3601 10.2C12.3601 10.38 12.3601 10.56 12.4201 10.74C10.4401 10.62 8.64009 9.66005 7.44009 8.22005C7.26009 8.58005 7.14009 9.00005 7.14009 9.42005C7.14009 10.26 7.5601 10.98 8.2201 11.4C7.8001 11.4 7.44009 11.28 7.14009 11.1C7.14009 12.24 7.98009 13.26 9.06009 13.44C8.88009 13.5 8.6401 13.5 8.4001 13.5C8.2201 13.5 8.1001 13.5 7.9201 13.44C8.2201 14.4 9.1201 15.12 10.2001 15.12C9.3601 15.78 8.3401 16.14 7.2001 16.14C7.0201 16.14 6.8401 16.14 6.6001 16.0801C7.6801 16.7401 8.9401 17.1601 10.3201 17.1601C14.7601 17.1601 17.1601 13.5 17.1601 10.32V10.02C17.6401 9.84005 18.0601 9.42005 18.3601 8.94005Z" fill="#141414"/>
</svg>
