<svg width="23" height="27" viewBox="0 0 23 27" fill="none" xmlns="http://www.w3.org/2000/svg">
<path d="M4.25371 20.4221C4.25371 21.1272 4.82586 21.7027 5.52982 21.7027H6.98867V25.3307C6.98867 26.2497 7.72258 27 8.62425 27C9.52891 27 10.2598 26.2527 10.2598 25.3307V21.6997H12.8061V25.3276C12.8061 26.2467 13.54 26.997 14.4416 26.997C15.3463 26.997 16.0772 26.2497 16.0772 25.3276V21.6997H17.5361C18.24 21.6997 18.8122 21.1241 18.8122 20.419V8.51064H4.25371V20.4221ZM14.9509 2.33949L16.2959 0.380872C16.3738 0.266368 16.3558 0.112692 16.251 0.0373606C16.1461 -0.0349576 15.9963 0.00120172 15.9185 0.115706L14.5225 2.15267C13.6029 1.78806 12.5784 1.58618 11.503 1.58618C10.4276 1.58618 9.4031 1.78806 8.48345 2.15267L7.08752 0.118719C7.00963 0.00421493 6.85986 -0.0349574 6.75501 0.0403741C6.65017 0.112692 6.63219 0.263355 6.71008 0.383885L8.05509 2.3425C5.91625 3.34291 4.41847 5.23825 4.22675 7.45299H18.7852C18.5875 5.23523 17.0867 3.33989 14.9509 2.33949ZM8.42953 5.42808C8.27016 5.42808 8.11437 5.38054 7.98185 5.29148C7.84934 5.20241 7.74605 5.07582 7.68507 4.9277C7.62408 4.77959 7.60812 4.61661 7.63921 4.45938C7.6703 4.30215 7.74705 4.15772 7.85974 4.04436C7.97244 3.931 8.11602 3.8538 8.27233 3.82252C8.42864 3.79125 8.59066 3.8073 8.7379 3.86865C8.88515 3.93 9.011 4.03389 9.09954 4.16719C9.18808 4.30048 9.23534 4.4572 9.23534 4.61751C9.23479 4.83232 9.14971 5.03817 8.99872 5.19006C8.84772 5.34195 8.64308 5.42752 8.42953 5.42808ZM14.6723 5.42808C14.5129 5.42808 14.3571 5.38054 14.2246 5.29148C14.0921 5.20241 13.9888 5.07582 13.9278 4.9277C13.8668 4.77959 13.8509 4.61661 13.882 4.45938C13.9131 4.30215 13.9898 4.15772 14.1025 4.04436C14.2152 3.931 14.3588 3.8538 14.5151 3.82252C14.6714 3.79125 14.8334 3.8073 14.9807 3.86865C15.1279 3.93 15.2538 4.03389 15.3423 4.16719C15.4309 4.30048 15.4781 4.4572 15.4781 4.61751C15.4776 4.83232 15.3925 5.03817 15.2415 5.19006C15.0905 5.34195 14.8858 5.42752 14.6723 5.42808ZM21.3644 8.46243C20.4597 8.46243 19.7288 9.20972 19.7288 10.1318V16.6525C19.7288 17.5715 20.4627 18.3218 21.3644 18.3218C22.2691 18.3218 23 17.5745 23 16.6525V10.1288C23.003 9.20671 22.2721 8.46243 21.3644 8.46243ZM1.63558 8.46243C0.730919 8.46243 0 9.20972 0 10.1318V16.6525C0 17.5715 0.733914 18.3218 1.63558 18.3218C2.54024 18.3218 3.27116 17.5745 3.27116 16.6525V10.1288C3.27116 9.20671 2.53725 8.46243 1.63558 8.46243Z" fill="#0F0F0F"/>
</svg>
