<svg width="98" height="21" viewBox="0 0 98 21" fill="none" xmlns="http://www.w3.org/2000/svg">
<g clip-path="url(#clip0_286_2325)">
<path d="M50.0324 2.26124L48.1849 0.481276C48.1003 0.399796 47.9626 0.399796 47.878 0.481276L46.0305 2.26124C45.9459 2.34272 45.9459 2.47544 46.0305 2.55692L47.878 4.33688C47.9626 4.41836 48.1003 4.41836 48.1849 4.33688L50.0324 2.55692C50.117 2.47544 50.117 2.34272 50.0324 2.26124Z" fill="#0080FF"/>
<path d="M29.2962 15.9432C28.2456 15.9432 27.3083 15.7257 26.4861 15.2906C25.6639 14.8563 25.0231 14.2515 24.5654 13.4787C24.1067 12.7059 23.8774 11.8256 23.8774 10.8386C23.8774 9.85157 24.1067 8.95529 24.5654 8.18921C25.0231 7.42313 25.657 6.82253 26.4661 6.38657C27.2752 5.95229 28.2055 5.73389 29.257 5.73389C30.3085 5.73389 31.1908 5.97413 32.027 6.45545C32.8631 6.93593 33.4691 7.63145 33.8466 8.54033L31.339 9.39713C31.1498 9.02081 30.856 8.71841 30.4584 8.49161C30.0609 8.26481 29.6197 8.15057 29.1349 8.15057C28.6501 8.15057 28.1976 8.26481 27.8201 8.49161C27.4426 8.71841 27.1453 9.03341 26.9308 9.43661C26.7146 9.83897 26.6064 10.3068 26.6064 10.8394C26.6064 11.372 26.7146 11.8365 26.9308 12.2321C27.1453 12.6286 27.4487 12.9436 27.8402 13.1771C28.2316 13.4106 28.6763 13.5274 29.175 13.5274C29.6737 13.5274 30.101 13.4039 30.4985 13.157C30.8961 12.91 31.19 12.5849 31.3792 12.1826L33.9076 13.0394C33.5161 13.9617 32.9058 14.6757 32.0775 15.1822C31.2484 15.6887 30.3207 15.9416 29.2962 15.9416V15.9432Z" fill="white"/>
<path d="M49.3654 5.96741H46.6965V15.7089H49.3654V5.96741Z" fill="white"/>
<path d="M59.3963 6.81497C58.7423 6.09425 57.8025 5.73389 56.5757 5.73389C55.8076 5.73389 55.1397 5.92625 54.5739 6.30929C54.1998 6.56213 53.8859 6.89477 53.6218 7.29461L53.5023 5.96825H50.9939V15.7097H53.6627V10.605C53.6627 9.78689 53.8485 9.17033 54.219 8.75453C54.5896 8.33873 55.1188 8.13713 55.8067 8.15057C56.1834 8.15057 56.5147 8.23121 56.7972 8.39417C57.0805 8.55713 57.2994 8.82005 57.4554 9.18377C57.6098 9.54749 57.6882 10.0607 57.6882 10.7226V15.7106H60.3571V10.1372C60.3693 8.64365 60.0502 7.53569 59.3954 6.81497H59.3963Z" fill="white"/>
<path d="M74.6718 5.96741L72.5235 12.2019L70.4659 5.96741H70.1624H68.1597H67.8371L65.7167 12.3497L63.6102 5.96741H60.9004L64.3382 15.7089H64.6007H66.8257H66.967L69.1545 9.04013L71.3151 15.7089H73.6814H73.9438L77.3817 5.96741H74.6718Z" fill="white"/>
<path d="M96.624 6.81497C95.9701 6.09425 95.0302 5.73389 93.8035 5.73389C93.0354 5.73389 92.3675 5.92625 91.8016 6.30929C91.4276 6.56213 91.1137 6.89477 90.8495 7.29461L90.7301 5.96825H88.2217V15.7097H90.8905V10.605C90.8905 9.78689 91.0762 9.17033 91.4468 8.75453C91.8173 8.33873 92.3466 8.13713 93.0345 8.15057C93.4112 8.15057 93.7425 8.23121 94.025 8.39417C94.3083 8.55713 94.5272 8.82005 94.6832 9.18377C94.8376 9.54749 94.916 10.0607 94.916 10.7226V15.7106H97.5849V10.1372C97.5971 8.64365 97.278 7.53569 96.6232 6.81497H96.624Z" fill="white"/>
<path d="M44.3904 8.18921C43.9379 7.42313 43.3145 6.82253 42.5194 6.38657C41.7242 5.95229 40.8 5.73389 39.7485 5.73389C38.697 5.73389 37.8112 5.95229 37.009 6.38657C36.2069 6.82253 35.5809 7.42313 35.1293 8.18921C34.6767 8.95613 34.4509 9.83897 34.4509 10.8386C34.4509 11.8382 34.6802 12.7218 35.138 13.4879C35.5966 14.2548 36.227 14.8554 37.0291 15.2897C37.8312 15.7248 38.7511 15.9424 39.7886 15.9424C40.8262 15.9424 41.7408 15.7248 42.5298 15.2897C43.318 14.8554 43.9379 14.254 44.3904 13.4879C44.8421 12.7218 45.0679 11.8382 45.0679 10.8386C45.0679 9.83897 44.8421 8.95529 44.3904 8.18921ZM41.862 9.49457C42.0712 9.88433 42.1758 10.332 42.1758 10.8386C42.1758 11.3451 42.0738 11.7936 41.8724 12.1826C41.6701 12.5723 41.3894 12.8781 41.0328 13.0982C40.6753 13.3191 40.2612 13.4291 39.7886 13.4291C39.3161 13.4291 38.8958 13.3191 38.5252 13.0982C38.1547 12.8772 37.8678 12.5723 37.6656 12.1826C37.4633 11.7928 37.3622 11.3451 37.3622 10.8386C37.3622 10.332 37.4633 9.88349 37.6656 9.49457C37.8678 9.10481 38.1512 8.79989 38.5148 8.57897C38.8792 8.35805 39.2908 8.24801 39.7485 8.24801H42.488L41.9256 8.82593C41.7974 8.95697 41.6405 9.18377 41.7451 9.33077C41.7817 9.38789 41.8288 9.43409 41.862 9.49541V9.49457Z" fill="white"/>
<path d="M86.0779 7.80869C85.7405 7.12661 85.2348 6.61001 84.5608 6.25973C83.886 5.90945 83.0438 5.73389 82.0324 5.73389C81.1962 5.73389 80.4856 5.86409 79.8989 6.12365C79.3121 6.38321 78.8413 6.71165 78.4838 7.10729C78.1263 7.50377 77.8534 7.90949 77.6642 8.32529L80.0506 9.10481C80.2799 8.72849 80.5563 8.45549 80.8797 8.28665C81.2032 8.11781 81.5668 8.03297 81.9722 8.03297C82.4299 8.03297 82.7979 8.13965 83.0734 8.35469C83.3498 8.56889 83.5521 8.88053 83.6811 9.28961C83.7317 9.45089 83.7639 9.63653 83.7945 9.82553H81.5066C80.1988 9.82553 79.1839 10.0884 78.4629 10.6143C77.7409 11.1401 77.3809 11.923 77.3809 12.9621C77.3809 13.9104 77.7148 14.6446 78.3818 15.1637C79.0496 15.6837 79.9895 15.9432 81.2041 15.9432C82.4186 15.9432 83.2696 15.5728 83.8014 14.8328C83.8468 14.7698 83.879 14.6925 83.92 14.6261L83.9331 15.7097H86.5827V10.3127C86.5827 9.32573 86.4136 8.49161 86.0771 7.80869H86.0779ZM83.8128 12.3128C83.7212 12.3942 83.6698 12.4934 83.6393 12.5648L83.6332 12.5732C83.6096 12.621 83.5983 12.6706 83.5695 12.7185C83.3803 13.0368 83.1222 13.2964 82.7918 13.498C82.4605 13.6996 82.0795 13.8004 81.6487 13.8004C81.164 13.8004 80.7864 13.7189 80.5162 13.5568C80.2467 13.3947 80.1125 13.1704 80.1125 12.8848C80.1125 12.5219 80.2808 12.2388 80.6182 12.0372C80.9547 11.8356 81.5616 11.7348 82.4387 11.7348H84.376L83.8136 12.3128H83.8128Z" fill="white"/>
<path d="M6.66985 19.4535C8.32905 20.9563 10.9151 20.9554 12.5743 19.4527L14.999 17.2552V11.3542L8.53394 17.2099V15.7575C8.53394 15.4282 8.39269 15.1132 8.14333 14.8873L0.414062 7.88586V13.2703C0.414062 13.5995 0.555308 13.9145 0.804667 14.1405L6.66985 19.4527V19.4535Z" fill="#0080FF"/>
<path d="M11.6191 10.6899L9.77143 8.90974C9.68665 8.82806 9.54919 8.82806 9.46441 8.90974L7.61671 10.6899C7.53192 10.7715 7.53192 10.904 7.61671 10.9857L9.46441 12.7658C9.54919 12.8475 9.68665 12.8475 9.77143 12.7658L11.6191 10.9857C11.7039 10.904 11.7039 10.7715 11.6191 10.6899Z" fill="#0080FF"/>
<path d="M18.4308 7.53561L12.5647 2.22345C10.9055 0.720692 8.31864 0.721532 6.66031 2.22429L4.2356 4.42173V10.3236L10.7006 4.46793V5.92029C10.7006 6.24957 10.8419 6.56541 11.0912 6.79053L18.8205 13.7911V8.40585C18.8205 8.07657 18.6793 7.76157 18.4299 7.53561H18.4308Z" fill="#0080FF"/>
</g>
<defs>
<clipPath id="clip0_286_2325">
<rect width="98" height="21" fill="white"/>
</clipPath>
</defs>
</svg>
